<svg width="47" height="59" viewBox="0 0 47 59" fill="none" xmlns="http://www.w3.org/2000/svg">
<g clip-path="url(#clip0_502_641)">
<path d="M37.8478 20.3034C37.8478 20.3034 33.1828 16.9698 31.4059 20.9682" stroke="#664A3A" stroke-width="0.685786" stroke-linecap="round" stroke-linejoin="round"/>
<path d="M5.76027 47.0744C5.76027 47.0744 -0.0894861 52.38 -0.000333999 58.4663L8.92345 58.4029C8.92345 58.4029 6.14019 49.8607 5.76027 47.0744Z" fill="#5EADEF"/>
<path d="M40.1246 44.7328C40.1246 44.7328 47.1512 52.454 46.5813 58.4674L39.05 58.3408C39.05 58.3408 39.05 44.7959 40.1246 44.7328Z" fill="#5EADEF"/>
<path d="M6.76113 47.1145C6.76113 47.1145 1.77786 52.0971 1.60779 58.325" stroke="white" stroke-width="0.116584" stroke-miterlimit="10" stroke-linecap="round"/>
<path d="M7.87044 47.7509C7.87044 47.7509 2.88649 52.4667 2.7171 58.36" stroke="white" stroke-width="0.116584" stroke-miterlimit="10" stroke-linecap="round"/>
<path d="M9.16658 48.7878C9.16658 48.7878 4.18298 53.0541 4.01324 58.3888" stroke="white" stroke-width="0.116584" stroke-miterlimit="10" stroke-linecap="round"/>
<path d="M8.10938 53.6511C8.10938 53.6511 5.74342 55.7681 5.66284 58.4145" stroke="white" stroke-width="0.130299" stroke-miterlimit="10" stroke-linecap="round"/>
<path d="M16.8055 10.2968L8.93065 17.1025L3.38916 27.5052L14.4725 44.8106L34.5002 48.1161L40.8193 22.0607L24.3889 9.42169L16.8055 10.2968Z" fill="#F9DED2"/>
<path d="M17.2667 58.4766L17.5729 42.709L30.8984 44.8398L34.5059 58.4465L17.2667 58.4766Z" fill="#E8C0A6"/>
<path d="M37.8711 20.5633C37.8711 20.5633 34.1998 17.8431 31.4292 21.2292" stroke="#664A3A" stroke-width="0.685786" stroke-linecap="round" stroke-linejoin="round"/>
<path d="M18.4196 29.3327C18.6988 28.342 17.506 27.139 15.7555 26.6456C14.0049 26.1522 12.3595 26.5553 12.0803 27.546C11.801 28.5366 12.9938 29.7397 14.7444 30.2331C16.4949 30.7264 18.1404 30.3233 18.4196 29.3327Z" fill="#C96D6D"/>
<path d="M34.35 31.3169C36.1113 30.8633 37.3311 29.6877 37.0744 28.6909C36.8177 27.6942 35.1819 27.2538 33.4206 27.7074C31.6593 28.1609 30.4395 29.3366 30.6962 30.3333C30.9528 31.33 32.5887 31.7704 34.35 31.3169Z" fill="#C96D6D"/>
<path d="M23.2543 43.2271L21.3444 41.4983C21.3395 41.4939 21.3336 41.4908 21.3272 41.4894C21.3208 41.4879 21.3141 41.4881 21.3079 41.49C21.3016 41.4918 21.2959 41.4953 21.2913 41.5C21.2867 41.5046 21.2834 41.5104 21.2817 41.5168L20.9878 42.5976L20.6826 43.7192C20.6633 43.7898 20.6637 43.8644 20.6837 43.9349C20.7037 44.0054 20.7426 44.069 20.7961 44.119L23.3678 46.5192C23.4355 46.5822 23.5227 46.62 23.615 46.6263C23.7072 46.6325 23.7987 46.6068 23.8743 46.5535L26.2906 44.8514C26.3597 44.8026 26.4117 44.7333 26.4391 44.6532C26.4666 44.5732 26.4681 44.4866 26.4436 44.4056L25.5328 41.4304L23.8122 43.2086C23.7396 43.2831 23.641 43.3267 23.537 43.3301C23.433 43.3336 23.3317 43.2967 23.2543 43.2271Z" fill="#5EADEF"/>
<path d="M39.875 46.1366C39.875 46.1366 45.2852 51.5293 45.4693 58.2702" stroke="white" stroke-width="0.126527" stroke-miterlimit="10" stroke-linecap="round"/>
<path d="M38.6725 46.8251C38.6725 46.8251 44.0826 51.9287 44.2671 58.3082" stroke="white" stroke-width="0.126527" stroke-miterlimit="10" stroke-linecap="round"/>
<path d="M37.2656 47.9478C37.2656 47.9478 42.6754 52.5655 42.8599 58.3374" stroke="white" stroke-width="0.126527" stroke-miterlimit="10" stroke-linecap="round"/>
<path d="M38.4129 53.2115C38.4129 53.2115 40.9815 55.503 41.0689 58.3676" stroke="white" stroke-width="0.141272" stroke-miterlimit="10" stroke-linecap="round"/>
<path d="M13.9546 27.8346C14.1687 27.5851 14.2625 27.3144 14.1642 27.2301C14.0659 27.1457 13.8127 27.2796 13.5986 27.5291C13.3845 27.7786 13.2907 28.0493 13.389 28.1336C13.4873 28.218 13.7405 28.0841 13.9546 27.8346Z" fill="white"/>
<path d="M15.4168 28.4637C15.6308 28.2142 15.7247 27.9436 15.6264 27.8592C15.5281 27.7749 15.2748 27.9088 15.0608 28.1583C14.8467 28.4078 14.7528 28.6784 14.8512 28.7628C14.9495 28.8471 15.2027 28.7132 15.4168 28.4637Z" fill="white"/>
<path d="M35.9384 29.3071C36.046 29.2346 35.9839 28.9546 35.7998 28.6817C35.6157 28.4088 35.3793 28.2464 35.2718 28.319C35.1642 28.3915 35.2263 28.6715 35.4104 28.9444C35.5945 29.2173 35.8309 29.3796 35.9384 29.3071Z" fill="white"/>
<path d="M34.4181 29.8606C34.5302 29.7958 34.4879 29.5125 34.3236 29.2278C34.1592 28.9431 33.935 28.7648 33.8228 28.8296C33.7106 28.8943 33.7529 29.1776 33.9173 29.4624C34.0817 29.7471 34.3059 29.9254 34.4181 29.8606Z" fill="white"/>
<path opacity="0.9" d="M21.2309 42.0726L23.1069 43.6928" stroke="white" stroke-width="0.106297" stroke-miterlimit="10" stroke-linecap="round"/>
<path opacity="0.9" d="M20.973 42.7303L23.5379 45.0928" stroke="white" stroke-width="0.109383" stroke-miterlimit="10" stroke-linecap="round"/>
<path opacity="0.9" d="M20.805 43.558L23.5183 46.0732" stroke="white" stroke-width="0.109726" stroke-miterlimit="10" stroke-linecap="round"/>
<path opacity="0.9" d="M25.5582 42.5746L24.0038 43.7665" stroke="white" stroke-width="0.102868" stroke-miterlimit="10" stroke-linecap="round"/>
<path opacity="0.9" d="M23.6088 45.1103L25.8719 43.3993" stroke="white" stroke-width="0.12687" stroke-miterlimit="10" stroke-linecap="round"/>
<path opacity="0.9" d="M23.6459 46.0855L26.0763 44.3103" stroke="white" stroke-width="0.115212" stroke-miterlimit="10" stroke-linecap="round"/>
<path d="M19.0793 2.07344C19.0793 2.07344 5.1098 -0.679989 2.80693 24.4767C2.33854 29.5968 1.26392 33.1694 3.431 38.4496C4.28583 40.5326 5.79696 43.5676 5.66563 47.42C5.38137 55.8089 8.82025 58.5465 8.82025 58.5465L18.8125 58.6113C19.0734 58.5726 19.5864 58.5242 19.5919 58.2599C17.7598 57.0035 20.614 53.1326 18.6383 50.0527C16.6677 46.9804 21.4329 45.0945 21.2566 41.9498C21.3437 41.7835 21.3568 41.4879 21.3231 41.3031C21.1822 40.5278 20.7241 38.6896 20.0963 38.2706C19.2641 37.7151 10.8505 35.5857 10.1109 31.6051C9.81052 29.9877 9.72377 29.6235 9.72651 29.761C9.74571 30.7129 8.90357 31.207 7.96884 31.3798C6.39154 31.6713 5.09849 30.634 4.84097 28.3647C4.49088 25.2787 6.43886 24.6992 7.93147 25.6902C8.2555 25.9055 8.67692 26.2357 8.85728 26.5817C9.46077 27.7445 10.4346 29.1702 10.5745 30.309C10.7418 31.675 11.7448 29.7079 11.3168 27.1358C10.9016 24.6474 12.4189 14.1422 17.4814 11.0552C17.4814 11.0552 24.2919 19.441 29.997 20.4549C33.9224 21.152 35.1908 21.9804 36.169 22.5493C36.5406 22.7661 36.8369 23.0914 37.0181 23.4816C37.1993 23.8718 37.2567 24.308 37.1826 24.7318C36.9501 26.0787 36.8658 27.6296 37.1747 28.2417C37.8561 29.5902 39.4306 38.034 25.6107 38.837C25.2462 39.049 25.0963 39.8613 25.2129 41.203C24.7017 43.0416 29.2248 49.1471 28.2023 51.9139C27.3618 54.1935 30.3522 56.5793 29.2207 58.4731C29.0808 58.707 29.6928 58.514 29.9647 58.5153L39.3391 58.5592C39.4879 57.8446 38.4153 49.8789 40.3492 45.0218C41.9152 41.0888 41.1091 39.7563 42.0082 37.7329C44.0998 33.0247 44.1365 16.9286 40.8104 12.2532C37.7755 7.98251 33.9735 1.93731 27.9382 0.327773C25.335 -0.366242 22.3895 -0.0363804 19.0793 2.07344Z" fill="#191919"/>
<path d="M23.5502 44.2695L23.5893 46.6139L23.5228 43.3598" fill="#5EADEF"/>
<path d="M23.5502 44.2695L23.5893 46.6139L23.5228 43.3598" stroke="#020202" stroke-width="0.102868" stroke-miterlimit="10" stroke-linecap="round"/>
<path d="M23.5687 44.3984C23.8359 44.3984 24.0525 44.1818 24.0525 43.9146C24.0525 43.6474 23.8359 43.4308 23.5687 43.4308C23.3015 43.4308 23.0849 43.6474 23.0849 43.9146C23.0849 44.1818 23.3015 44.3984 23.5687 44.3984Z" fill="white"/>
<path d="M18.9294 20.0386C18.9294 20.0386 16.0193 17.3202 13.822 20.7052" stroke="#664A3A" stroke-width="0.610692" stroke-linecap="round" stroke-linejoin="round"/>
<path d="M17.0781 26.2992C17.9369 26.2992 18.6331 25.3793 18.6331 24.2446C18.6331 23.1098 17.9369 22.1899 17.0781 22.1899C16.2193 22.1899 15.5231 23.1098 15.5231 24.2446C15.5231 25.3793 16.2193 26.2992 17.0781 26.2992Z" fill="#141211"/>
<path d="M17.1066 24.116C17.3196 24.116 17.4923 23.9433 17.4923 23.7302C17.4923 23.5172 17.3196 23.3445 17.1066 23.3445C16.8935 23.3445 16.7208 23.5172 16.7208 23.7302C16.7208 23.9433 16.8935 24.116 17.1066 24.116Z" fill="white"/>
<path d="M17.6322 25.0624C17.8453 25.0624 18.018 24.8897 18.018 24.6766C18.018 24.4636 17.8453 24.2909 17.6322 24.2909C17.4192 24.2909 17.2465 24.4636 17.2465 24.6766C17.2465 24.8897 17.4192 25.0624 17.6322 25.0624Z" fill="white"/>
<path d="M33.6588 25.8778C33.8018 24.7521 33.227 23.7518 32.3751 23.6436C31.5231 23.5353 30.7165 24.3601 30.5735 25.4858C30.4305 26.6115 31.0052 27.6118 31.8572 27.72C32.7092 27.8283 33.5157 27.0034 33.6588 25.8778Z" fill="#141211"/>
<path d="M32.2089 25.5609C32.422 25.5609 32.5947 25.3882 32.5947 25.1752C32.5947 24.9621 32.422 24.7894 32.2089 24.7894C31.9959 24.7894 31.8232 24.9621 31.8232 25.1752C31.8232 25.3882 31.9959 25.5609 32.2089 25.5609Z" fill="white"/>
<path d="M32.6112 26.5659C32.8242 26.5659 32.9969 26.3932 32.9969 26.1802C32.9969 25.9671 32.8242 25.7944 32.6112 25.7944C32.3981 25.7944 32.2254 25.9671 32.2254 26.1802C32.2254 26.3932 32.3981 26.5659 32.6112 26.5659Z" fill="white"/>
<path d="M20.5372 32.8677C20.5372 32.8677 23.1449 36.2983 27.5532 33.1739" stroke="#C64F46" stroke-width="0.349065" stroke-linecap="round" stroke-linejoin="round"/>
<path d="M7.60675 27.1705L8.44341 29.2172" stroke="#C96D6D" stroke-width="0.342893" stroke-miterlimit="10" stroke-linecap="round"/>
<path d="M6.15765 28.8287L7.98013 28.1415" stroke="#C96D6D" stroke-width="0.342893" stroke-miterlimit="10" stroke-linecap="round"/>
</g>
<defs>
<clipPath id="clip0_502_641">
<rect width="47" height="58.6114" fill="white"/>
</clipPath>
</defs>
</svg>
