<svg width="25" height="25" viewBox="0 0 25 25" fill="none" xmlns="http://www.w3.org/2000/svg">
<path d="M0.135742 1.98697C0.135742 1.01604 0.942549 0.229172 1.93802 0.229172H22.8751C23.8706 0.229172 24.6774 1.01604 24.6774 1.98697V23.013C24.6774 23.984 23.8706 24.7708 22.8751 24.7708H1.93802C0.942549 24.7708 0.135742 23.984 0.135742 23.013V1.98697ZM7.71758 20.7736V9.69152H4.0348V20.7736H7.71758ZM5.87696 8.1776C7.16079 8.1776 7.95993 7.32785 7.95993 6.26335C7.93692 5.17585 7.16233 4.3491 5.9015 4.3491C4.64067 4.3491 3.81699 5.17739 3.81699 6.26335C3.81699 7.32785 4.61613 8.1776 5.85242 8.1776H5.87696ZM13.4051 20.7736V14.5845C13.4051 14.2532 13.4297 13.9219 13.5278 13.6857C13.7932 13.0246 14.3991 12.339 15.4175 12.339C16.7505 12.339 17.2827 13.3544 17.2827 14.8453V20.7736H20.9655V14.4173C20.9655 11.0122 19.1494 9.42923 16.7259 9.42923C14.7718 9.42923 13.8959 10.5029 13.4051 11.2591V11.2975H13.3806C13.3887 11.2847 13.3969 11.2719 13.4051 11.2591V9.69152H9.72386C9.76988 10.7315 9.72386 20.7736 9.72386 20.7736H13.4051Z" fill="#25282B"/>
</svg>
