<svg width="28" height="21" viewBox="0 0 28 21" fill="none" xmlns="http://www.w3.org/2000/svg">
<path fill-rule="evenodd" clip-rule="evenodd" d="M0.116016 2.84473C0.286934 2.08392 0.707095 1.40463 1.30769 0.918092C1.90828 0.431556 2.6537 0.166619 3.42188 0.166672H23.7656C24.5338 0.166619 25.2792 0.431556 25.8798 0.918092C26.4804 1.40463 26.9006 2.08392 27.0715 2.84473L13.5938 11.213L0.116016 2.84473ZM0.03125 4.81151V17.0462L9.86915 10.9185L0.03125 4.81151ZM11.4933 11.9294L0.355055 18.8648C0.630249 19.4543 1.06459 19.9523 1.60752 20.3008C2.15045 20.6493 2.77965 20.834 3.42188 20.8333H23.7656C24.4077 20.8335 25.0367 20.6484 25.5793 20.2996C26.122 19.9508 26.5559 19.4527 26.8308 18.8631L15.6925 11.9277L13.5938 13.2315L11.4933 11.9277V11.9294ZM17.3184 10.9202L27.1563 17.0462V4.81151L17.3184 10.9185V10.9202Z" fill="#25282B"/>
</svg>
