<svg width="348" height="348" viewBox="0 0 348 348" fill="none" xmlns="http://www.w3.org/2000/svg">
<mask id="path-1-inside-1_427_1148" fill="white">
<path d="M174 0C205.625 -1.38239e-06 236.653 8.61923 263.747 24.9311C290.841 41.2431 312.977 64.6308 327.775 92.5802C342.574 120.53 349.475 151.984 347.737 183.561C345.999 215.139 335.688 245.646 317.912 271.802C300.136 297.959 275.567 318.777 246.847 332.017C218.126 345.257 186.341 350.42 154.906 346.949C123.472 343.479 93.5777 331.507 68.4373 312.32C43.2969 293.134 23.861 267.458 12.2189 238.054L174 174V0Z"/>
</mask>
<path d="M174 0C205.625 -1.38239e-06 236.653 8.61923 263.747 24.9311C290.841 41.2431 312.977 64.6308 327.775 92.5802C342.574 120.53 349.475 151.984 347.737 183.561C345.999 215.139 335.688 245.646 317.912 271.802C300.136 297.959 275.567 318.777 246.847 332.017C218.126 345.257 186.341 350.42 154.906 346.949C123.472 343.479 93.5777 331.507 68.4373 312.32C43.2969 293.134 23.861 267.458 12.2189 238.054L174 174V0Z" fill="#FF7723" stroke="white" stroke-width="2" mask="url(#path-1-inside-1_427_1148)"/>
<mask id="path-2-inside-2_427_1148" fill="white">
<path d="M12.2189 238.054C-1.99638 202.15 -3.86445 162.538 6.9089 125.456C17.6823 88.3734 40.4849 55.9286 71.7254 33.231L174 174L12.2189 238.054Z"/>
</mask>
<path d="M12.2189 238.054C-1.99638 202.15 -3.86445 162.538 6.9089 125.456C17.6823 88.3734 40.4849 55.9286 71.7254 33.231L174 174L12.2189 238.054Z" fill="#0263FF" stroke="white" stroke-width="2" mask="url(#path-2-inside-2_427_1148)"/>
<mask id="path-3-inside-3_427_1148" fill="white">
<path d="M71.7254 33.231C101.453 11.6328 137.255 -4.38182e-07 174 0V174L71.7254 33.231Z"/>
</mask>
<path d="M71.7254 33.231C101.453 11.6328 137.255 -4.38182e-07 174 0V174L71.7254 33.231Z" fill="#92151F" stroke="white" stroke-width="2" mask="url(#path-3-inside-3_427_1148)"/>
<path d="M264.609 235.938V237.754L258.012 253H254.449L261.047 238.574H252.551V235.938H264.609ZM278.285 242.969V245.922C278.285 247.203 278.148 248.309 277.875 249.238C277.602 250.16 277.207 250.918 276.691 251.512C276.184 252.098 275.578 252.531 274.875 252.812C274.172 253.094 273.391 253.234 272.531 253.234C271.844 253.234 271.203 253.148 270.609 252.977C270.016 252.797 269.48 252.52 269.004 252.145C268.535 251.77 268.129 251.297 267.785 250.727C267.449 250.148 267.191 249.461 267.012 248.664C266.832 247.867 266.742 246.953 266.742 245.922V242.969C266.742 241.688 266.879 240.59 267.152 239.676C267.434 238.754 267.828 238 268.336 237.414C268.852 236.828 269.461 236.398 270.164 236.125C270.867 235.844 271.648 235.703 272.508 235.703C273.195 235.703 273.832 235.793 274.418 235.973C275.012 236.145 275.547 236.414 276.023 236.781C276.5 237.148 276.906 237.621 277.242 238.199C277.578 238.77 277.836 239.453 278.016 240.25C278.195 241.039 278.285 241.945 278.285 242.969ZM274.898 246.367V242.512C274.898 241.895 274.863 241.355 274.793 240.895C274.73 240.434 274.633 240.043 274.5 239.723C274.367 239.395 274.203 239.129 274.008 238.926C273.812 238.723 273.59 238.574 273.34 238.48C273.09 238.387 272.812 238.34 272.508 238.34C272.125 238.34 271.785 238.414 271.488 238.562C271.199 238.711 270.953 238.949 270.75 239.277C270.547 239.598 270.391 240.027 270.281 240.566C270.18 241.098 270.129 241.746 270.129 242.512V246.367C270.129 246.984 270.16 247.527 270.223 247.996C270.293 248.465 270.395 248.867 270.527 249.203C270.668 249.531 270.832 249.801 271.02 250.012C271.215 250.215 271.438 250.363 271.688 250.457C271.945 250.551 272.227 250.598 272.531 250.598C272.906 250.598 273.238 250.523 273.527 250.375C273.824 250.219 274.074 249.977 274.277 249.648C274.488 249.312 274.645 248.875 274.746 248.336C274.848 247.797 274.898 247.141 274.898 246.367ZM280.535 240.121V239.219C280.535 238.57 280.676 237.98 280.957 237.449C281.238 236.918 281.652 236.492 282.199 236.172C282.746 235.852 283.418 235.691 284.215 235.691C285.035 235.691 285.719 235.852 286.266 236.172C286.82 236.492 287.234 236.918 287.508 237.449C287.789 237.98 287.93 238.57 287.93 239.219V240.121C287.93 240.754 287.789 241.336 287.508 241.867C287.234 242.398 286.824 242.824 286.277 243.145C285.73 243.465 285.055 243.625 284.25 243.625C283.438 243.625 282.754 243.465 282.199 243.145C281.652 242.824 281.238 242.398 280.957 241.867C280.676 241.336 280.535 240.754 280.535 240.121ZM282.773 239.219V240.121C282.773 240.395 282.824 240.656 282.926 240.906C283.035 241.148 283.199 241.348 283.418 241.504C283.645 241.652 283.918 241.727 284.238 241.727C284.574 241.727 284.848 241.652 285.059 241.504C285.27 241.348 285.426 241.148 285.527 240.906C285.629 240.656 285.68 240.395 285.68 240.121V239.219C285.68 238.93 285.625 238.664 285.516 238.422C285.414 238.172 285.254 237.973 285.035 237.824C284.824 237.668 284.551 237.59 284.215 237.59C283.902 237.59 283.637 237.668 283.418 237.824C283.199 237.973 283.035 238.172 282.926 238.422C282.824 238.664 282.773 238.93 282.773 239.219ZM288.691 249.719V248.816C288.691 248.176 288.832 247.59 289.113 247.059C289.402 246.527 289.82 246.102 290.367 245.781C290.922 245.461 291.602 245.301 292.406 245.301C293.219 245.301 293.898 245.461 294.445 245.781C294.992 246.102 295.406 246.527 295.688 247.059C295.969 247.59 296.109 248.176 296.109 248.816V249.719C296.109 250.359 295.969 250.945 295.688 251.477C295.414 252.008 295.004 252.434 294.457 252.754C293.91 253.074 293.234 253.234 292.43 253.234C291.617 253.234 290.934 253.074 290.379 252.754C289.824 252.434 289.402 252.008 289.113 251.477C288.832 250.945 288.691 250.359 288.691 249.719ZM290.941 248.816V249.719C290.941 250 291.004 250.266 291.129 250.516C291.254 250.766 291.426 250.965 291.645 251.113C291.871 251.262 292.133 251.336 292.43 251.336C292.805 251.336 293.098 251.262 293.309 251.113C293.52 250.965 293.664 250.766 293.742 250.516C293.828 250.266 293.871 250 293.871 249.719V248.816C293.871 248.535 293.816 248.273 293.707 248.031C293.598 247.781 293.434 247.582 293.215 247.434C293.004 247.277 292.734 247.199 292.406 247.199C292.078 247.199 291.805 247.277 291.586 247.434C291.375 247.582 291.215 247.781 291.105 248.031C290.996 248.273 290.941 248.535 290.941 248.816ZM293.238 238.375L284.906 251.711L283.266 250.844L291.598 237.508L293.238 238.375Z" fill="white"/>
<path d="M57.1914 152.363V155H45.5195V152.75L51.0391 146.832C51.5938 146.215 52.0312 145.672 52.3516 145.203C52.6719 144.727 52.9023 144.301 53.043 143.926C53.1914 143.543 53.2656 143.18 53.2656 142.836C53.2656 142.32 53.1797 141.879 53.0078 141.512C52.8359 141.137 52.582 140.848 52.2461 140.645C51.918 140.441 51.5117 140.34 51.0273 140.34C50.5117 140.34 50.0664 140.465 49.6914 140.715C49.3242 140.965 49.043 141.312 48.8477 141.758C48.6602 142.203 48.5664 142.707 48.5664 143.27H45.1797C45.1797 142.254 45.4219 141.324 45.9062 140.48C46.3906 139.629 47.0742 138.953 47.957 138.453C48.8398 137.945 49.8867 137.691 51.0977 137.691C52.293 137.691 53.3008 137.887 54.1211 138.277C54.9492 138.66 55.5742 139.215 55.9961 139.941C56.4258 140.66 56.6406 141.52 56.6406 142.52C56.6406 143.082 56.5508 143.633 56.3711 144.172C56.1914 144.703 55.9336 145.234 55.5977 145.766C55.2695 146.289 54.8711 146.82 54.4023 147.359C53.9336 147.898 53.4141 148.457 52.8438 149.035L49.8789 152.363H57.1914ZM70.7852 144.969V147.922C70.7852 149.203 70.6484 150.309 70.375 151.238C70.1016 152.16 69.707 152.918 69.1914 153.512C68.6836 154.098 68.0781 154.531 67.375 154.812C66.6719 155.094 65.8906 155.234 65.0312 155.234C64.3438 155.234 63.7031 155.148 63.1094 154.977C62.5156 154.797 61.9805 154.52 61.5039 154.145C61.0352 153.77 60.6289 153.297 60.2852 152.727C59.9492 152.148 59.6914 151.461 59.5117 150.664C59.332 149.867 59.2422 148.953 59.2422 147.922V144.969C59.2422 143.688 59.3789 142.59 59.6523 141.676C59.9336 140.754 60.3281 140 60.8359 139.414C61.3516 138.828 61.9609 138.398 62.6641 138.125C63.3672 137.844 64.1484 137.703 65.0078 137.703C65.6953 137.703 66.332 137.793 66.918 137.973C67.5117 138.145 68.0469 138.414 68.5234 138.781C69 139.148 69.4062 139.621 69.7422 140.199C70.0781 140.77 70.3359 141.453 70.5156 142.25C70.6953 143.039 70.7852 143.945 70.7852 144.969ZM67.3984 148.367V144.512C67.3984 143.895 67.3633 143.355 67.293 142.895C67.2305 142.434 67.1328 142.043 67 141.723C66.8672 141.395 66.7031 141.129 66.5078 140.926C66.3125 140.723 66.0898 140.574 65.8398 140.48C65.5898 140.387 65.3125 140.34 65.0078 140.34C64.625 140.34 64.2852 140.414 63.9883 140.562C63.6992 140.711 63.4531 140.949 63.25 141.277C63.0469 141.598 62.8906 142.027 62.7812 142.566C62.6797 143.098 62.6289 143.746 62.6289 144.512V148.367C62.6289 148.984 62.6602 149.527 62.7227 149.996C62.793 150.465 62.8945 150.867 63.0273 151.203C63.168 151.531 63.332 151.801 63.5195 152.012C63.7148 152.215 63.9375 152.363 64.1875 152.457C64.4453 152.551 64.7266 152.598 65.0312 152.598C65.4062 152.598 65.7383 152.523 66.0273 152.375C66.3242 152.219 66.5742 151.977 66.7773 151.648C66.9883 151.312 67.1445 150.875 67.2461 150.336C67.3477 149.797 67.3984 149.141 67.3984 148.367ZM73.0352 142.121V141.219C73.0352 140.57 73.1758 139.98 73.457 139.449C73.7383 138.918 74.1523 138.492 74.6992 138.172C75.2461 137.852 75.918 137.691 76.7148 137.691C77.5352 137.691 78.2188 137.852 78.7656 138.172C79.3203 138.492 79.7344 138.918 80.0078 139.449C80.2891 139.98 80.4297 140.57 80.4297 141.219V142.121C80.4297 142.754 80.2891 143.336 80.0078 143.867C79.7344 144.398 79.3242 144.824 78.7773 145.145C78.2305 145.465 77.5547 145.625 76.75 145.625C75.9375 145.625 75.2539 145.465 74.6992 145.145C74.1523 144.824 73.7383 144.398 73.457 143.867C73.1758 143.336 73.0352 142.754 73.0352 142.121ZM75.2734 141.219V142.121C75.2734 142.395 75.3242 142.656 75.4258 142.906C75.5352 143.148 75.6992 143.348 75.918 143.504C76.1445 143.652 76.418 143.727 76.7383 143.727C77.0742 143.727 77.3477 143.652 77.5586 143.504C77.7695 143.348 77.9258 143.148 78.0273 142.906C78.1289 142.656 78.1797 142.395 78.1797 142.121V141.219C78.1797 140.93 78.125 140.664 78.0156 140.422C77.9141 140.172 77.7539 139.973 77.5352 139.824C77.3242 139.668 77.0508 139.59 76.7148 139.59C76.4023 139.59 76.1367 139.668 75.918 139.824C75.6992 139.973 75.5352 140.172 75.4258 140.422C75.3242 140.664 75.2734 140.93 75.2734 141.219ZM81.1914 151.719V150.816C81.1914 150.176 81.332 149.59 81.6133 149.059C81.9023 148.527 82.3203 148.102 82.8672 147.781C83.4219 147.461 84.1016 147.301 84.9062 147.301C85.7188 147.301 86.3984 147.461 86.9453 147.781C87.4922 148.102 87.9062 148.527 88.1875 149.059C88.4688 149.59 88.6094 150.176 88.6094 150.816V151.719C88.6094 152.359 88.4688 152.945 88.1875 153.477C87.9141 154.008 87.5039 154.434 86.957 154.754C86.4102 155.074 85.7344 155.234 84.9297 155.234C84.1172 155.234 83.4336 155.074 82.8789 154.754C82.3242 154.434 81.9023 154.008 81.6133 153.477C81.332 152.945 81.1914 152.359 81.1914 151.719ZM83.4414 150.816V151.719C83.4414 152 83.5039 152.266 83.6289 152.516C83.7539 152.766 83.9258 152.965 84.1445 153.113C84.3711 153.262 84.6328 153.336 84.9297 153.336C85.3047 153.336 85.5977 153.262 85.8086 153.113C86.0195 152.965 86.1641 152.766 86.2422 152.516C86.3281 152.266 86.3711 152 86.3711 151.719V150.816C86.3711 150.535 86.3164 150.273 86.207 150.031C86.0977 149.781 85.9336 149.582 85.7148 149.434C85.5039 149.277 85.2344 149.199 84.9062 149.199C84.5781 149.199 84.3047 149.277 84.0859 149.434C83.875 149.582 83.7148 149.781 83.6055 150.031C83.4961 150.273 83.4414 150.535 83.4414 150.816ZM85.7383 140.375L77.4062 153.711L75.7656 152.844L84.0977 139.508L85.7383 140.375Z" fill="white"/>
<path d="M130.246 57.9023V75H126.871V61.793L122.816 63.082V60.4219L129.883 57.9023H130.246ZM147.285 64.9688V67.9219C147.285 69.2031 147.148 70.3086 146.875 71.2383C146.602 72.1602 146.207 72.918 145.691 73.5117C145.184 74.0977 144.578 74.5312 143.875 74.8125C143.172 75.0938 142.391 75.2344 141.531 75.2344C140.844 75.2344 140.203 75.1484 139.609 74.9766C139.016 74.7969 138.48 74.5195 138.004 74.1445C137.535 73.7695 137.129 73.2969 136.785 72.7266C136.449 72.1484 136.191 71.4609 136.012 70.6641C135.832 69.8672 135.742 68.9531 135.742 67.9219V64.9688C135.742 63.6875 135.879 62.5898 136.152 61.6758C136.434 60.7539 136.828 60 137.336 59.4141C137.852 58.8281 138.461 58.3984 139.164 58.125C139.867 57.8438 140.648 57.7031 141.508 57.7031C142.195 57.7031 142.832 57.793 143.418 57.9727C144.012 58.1445 144.547 58.4141 145.023 58.7812C145.5 59.1484 145.906 59.6211 146.242 60.1992C146.578 60.7695 146.836 61.4531 147.016 62.25C147.195 63.0391 147.285 63.9453 147.285 64.9688ZM143.898 68.3672V64.5117C143.898 63.8945 143.863 63.3555 143.793 62.8945C143.73 62.4336 143.633 62.043 143.5 61.7227C143.367 61.3945 143.203 61.1289 143.008 60.9258C142.812 60.7227 142.59 60.5742 142.34 60.4805C142.09 60.3867 141.812 60.3398 141.508 60.3398C141.125 60.3398 140.785 60.4141 140.488 60.5625C140.199 60.7109 139.953 60.9492 139.75 61.2773C139.547 61.5977 139.391 62.0273 139.281 62.5664C139.18 63.0977 139.129 63.7461 139.129 64.5117V68.3672C139.129 68.9844 139.16 69.5273 139.223 69.9961C139.293 70.4648 139.395 70.8672 139.527 71.2031C139.668 71.5312 139.832 71.8008 140.02 72.0117C140.215 72.2148 140.438 72.3633 140.688 72.457C140.945 72.5508 141.227 72.5977 141.531 72.5977C141.906 72.5977 142.238 72.5234 142.527 72.375C142.824 72.2188 143.074 71.9766 143.277 71.6484C143.488 71.3125 143.645 70.875 143.746 70.3359C143.848 69.7969 143.898 69.1406 143.898 68.3672ZM149.535 62.1211V61.2188C149.535 60.5703 149.676 59.9805 149.957 59.4492C150.238 58.918 150.652 58.4922 151.199 58.1719C151.746 57.8516 152.418 57.6914 153.215 57.6914C154.035 57.6914 154.719 57.8516 155.266 58.1719C155.82 58.4922 156.234 58.918 156.508 59.4492C156.789 59.9805 156.93 60.5703 156.93 61.2188V62.1211C156.93 62.7539 156.789 63.3359 156.508 63.8672C156.234 64.3984 155.824 64.8242 155.277 65.1445C154.73 65.4648 154.055 65.625 153.25 65.625C152.438 65.625 151.754 65.4648 151.199 65.1445C150.652 64.8242 150.238 64.3984 149.957 63.8672C149.676 63.3359 149.535 62.7539 149.535 62.1211ZM151.773 61.2188V62.1211C151.773 62.3945 151.824 62.6562 151.926 62.9062C152.035 63.1484 152.199 63.3477 152.418 63.5039C152.645 63.6523 152.918 63.7266 153.238 63.7266C153.574 63.7266 153.848 63.6523 154.059 63.5039C154.27 63.3477 154.426 63.1484 154.527 62.9062C154.629 62.6562 154.68 62.3945 154.68 62.1211V61.2188C154.68 60.9297 154.625 60.6641 154.516 60.4219C154.414 60.1719 154.254 59.9727 154.035 59.8242C153.824 59.668 153.551 59.5898 153.215 59.5898C152.902 59.5898 152.637 59.668 152.418 59.8242C152.199 59.9727 152.035 60.1719 151.926 60.4219C151.824 60.6641 151.773 60.9297 151.773 61.2188ZM157.691 71.7188V70.8164C157.691 70.1758 157.832 69.5898 158.113 69.0586C158.402 68.5273 158.82 68.1016 159.367 67.7812C159.922 67.4609 160.602 67.3008 161.406 67.3008C162.219 67.3008 162.898 67.4609 163.445 67.7812C163.992 68.1016 164.406 68.5273 164.688 69.0586C164.969 69.5898 165.109 70.1758 165.109 70.8164V71.7188C165.109 72.3594 164.969 72.9453 164.688 73.4766C164.414 74.0078 164.004 74.4336 163.457 74.7539C162.91 75.0742 162.234 75.2344 161.43 75.2344C160.617 75.2344 159.934 75.0742 159.379 74.7539C158.824 74.4336 158.402 74.0078 158.113 73.4766C157.832 72.9453 157.691 72.3594 157.691 71.7188ZM159.941 70.8164V71.7188C159.941 72 160.004 72.2656 160.129 72.5156C160.254 72.7656 160.426 72.9648 160.645 73.1133C160.871 73.2617 161.133 73.3359 161.43 73.3359C161.805 73.3359 162.098 73.2617 162.309 73.1133C162.52 72.9648 162.664 72.7656 162.742 72.5156C162.828 72.2656 162.871 72 162.871 71.7188V70.8164C162.871 70.5352 162.816 70.2734 162.707 70.0312C162.598 69.7812 162.434 69.582 162.215 69.4336C162.004 69.2773 161.734 69.1992 161.406 69.1992C161.078 69.1992 160.805 69.2773 160.586 69.4336C160.375 69.582 160.215 69.7812 160.105 70.0312C159.996 70.2734 159.941 70.5352 159.941 70.8164ZM162.238 60.375L153.906 73.7109L152.266 72.8438L160.598 59.5078L162.238 60.375Z" fill="white"/>
</svg>
