<svg width="348" height="348" viewBox="0 0 348 348" fill="none" xmlns="http://www.w3.org/2000/svg">
<path d="M174 0C214.49 -1.7699e-06 253.713 14.1211 284.912 39.9307L174 174V0Z" fill="#0263FF"/>
<mask id="path-2-inside-1_427_1138" fill="white">
<path d="M284.912 39.9307C316.472 66.0396 337.81 102.445 345.169 142.739C352.528 183.033 345.436 224.631 325.142 260.21C304.848 295.789 272.653 323.068 234.224 337.245C195.796 351.422 153.598 351.588 115.06 337.713C76.5211 323.839 44.1127 296.813 23.5399 261.394C2.96704 225.975 -4.45125 184.434 2.59098 144.084C9.6332 103.734 30.6845 67.1619 62.0387 40.8059C93.3929 14.4499 133.04 -4.88444e-07 174 0V174L284.912 39.9307Z"/>
</mask>
<path d="M284.912 39.9307C316.472 66.0396 337.81 102.445 345.169 142.739C352.528 183.033 345.436 224.631 325.142 260.21C304.848 295.789 272.653 323.068 234.224 337.245C195.796 351.422 153.598 351.588 115.06 337.713C76.5211 323.839 44.1127 296.813 23.5399 261.394C2.96704 225.975 -4.45125 184.434 2.59098 144.084C9.6332 103.734 30.6845 67.1619 62.0387 40.8059C93.3929 14.4499 133.04 -4.88444e-07 174 0V174L284.912 39.9307Z" fill="#FF7723" stroke="white" stroke-width="4" mask="url(#path-2-inside-1_427_1138)"/>
<path d="M221.746 39.9023V57H218.371V43.793L214.316 45.082V42.4219L221.383 39.9023H221.746ZM238.785 46.9688V49.9219C238.785 51.2031 238.648 52.3086 238.375 53.2383C238.102 54.1602 237.707 54.918 237.191 55.5117C236.684 56.0977 236.078 56.5312 235.375 56.8125C234.672 57.0938 233.891 57.2344 233.031 57.2344C232.344 57.2344 231.703 57.1484 231.109 56.9766C230.516 56.7969 229.98 56.5195 229.504 56.1445C229.035 55.7695 228.629 55.2969 228.285 54.7266C227.949 54.1484 227.691 53.4609 227.512 52.6641C227.332 51.8672 227.242 50.9531 227.242 49.9219V46.9688C227.242 45.6875 227.379 44.5898 227.652 43.6758C227.934 42.7539 228.328 42 228.836 41.4141C229.352 40.8281 229.961 40.3984 230.664 40.125C231.367 39.8438 232.148 39.7031 233.008 39.7031C233.695 39.7031 234.332 39.793 234.918 39.9727C235.512 40.1445 236.047 40.4141 236.523 40.7812C237 41.1484 237.406 41.6211 237.742 42.1992C238.078 42.7695 238.336 43.4531 238.516 44.25C238.695 45.0391 238.785 45.9453 238.785 46.9688ZM235.398 50.3672V46.5117C235.398 45.8945 235.363 45.3555 235.293 44.8945C235.23 44.4336 235.133 44.043 235 43.7227C234.867 43.3945 234.703 43.1289 234.508 42.9258C234.312 42.7227 234.09 42.5742 233.84 42.4805C233.59 42.3867 233.312 42.3398 233.008 42.3398C232.625 42.3398 232.285 42.4141 231.988 42.5625C231.699 42.7109 231.453 42.9492 231.25 43.2773C231.047 43.5977 230.891 44.0273 230.781 44.5664C230.68 45.0977 230.629 45.7461 230.629 46.5117V50.3672C230.629 50.9844 230.66 51.5273 230.723 51.9961C230.793 52.4648 230.895 52.8672 231.027 53.2031C231.168 53.5312 231.332 53.8008 231.52 54.0117C231.715 54.2148 231.938 54.3633 232.188 54.457C232.445 54.5508 232.727 54.5977 233.031 54.5977C233.406 54.5977 233.738 54.5234 234.027 54.375C234.324 54.2188 234.574 53.9766 234.777 53.6484C234.988 53.3125 235.145 52.875 235.246 52.3359C235.348 51.7969 235.398 51.1406 235.398 50.3672ZM241.035 44.1211V43.2188C241.035 42.5703 241.176 41.9805 241.457 41.4492C241.738 40.918 242.152 40.4922 242.699 40.1719C243.246 39.8516 243.918 39.6914 244.715 39.6914C245.535 39.6914 246.219 39.8516 246.766 40.1719C247.32 40.4922 247.734 40.918 248.008 41.4492C248.289 41.9805 248.43 42.5703 248.43 43.2188V44.1211C248.43 44.7539 248.289 45.3359 248.008 45.8672C247.734 46.3984 247.324 46.8242 246.777 47.1445C246.23 47.4648 245.555 47.625 244.75 47.625C243.938 47.625 243.254 47.4648 242.699 47.1445C242.152 46.8242 241.738 46.3984 241.457 45.8672C241.176 45.3359 241.035 44.7539 241.035 44.1211ZM243.273 43.2188V44.1211C243.273 44.3945 243.324 44.6562 243.426 44.9062C243.535 45.1484 243.699 45.3477 243.918 45.5039C244.145 45.6523 244.418 45.7266 244.738 45.7266C245.074 45.7266 245.348 45.6523 245.559 45.5039C245.77 45.3477 245.926 45.1484 246.027 44.9062C246.129 44.6562 246.18 44.3945 246.18 44.1211V43.2188C246.18 42.9297 246.125 42.6641 246.016 42.4219C245.914 42.1719 245.754 41.9727 245.535 41.8242C245.324 41.668 245.051 41.5898 244.715 41.5898C244.402 41.5898 244.137 41.668 243.918 41.8242C243.699 41.9727 243.535 42.1719 243.426 42.4219C243.324 42.6641 243.273 42.9297 243.273 43.2188ZM249.191 53.7188V52.8164C249.191 52.1758 249.332 51.5898 249.613 51.0586C249.902 50.5273 250.32 50.1016 250.867 49.7812C251.422 49.4609 252.102 49.3008 252.906 49.3008C253.719 49.3008 254.398 49.4609 254.945 49.7812C255.492 50.1016 255.906 50.5273 256.188 51.0586C256.469 51.5898 256.609 52.1758 256.609 52.8164V53.7188C256.609 54.3594 256.469 54.9453 256.188 55.4766C255.914 56.0078 255.504 56.4336 254.957 56.7539C254.41 57.0742 253.734 57.2344 252.93 57.2344C252.117 57.2344 251.434 57.0742 250.879 56.7539C250.324 56.4336 249.902 56.0078 249.613 55.4766C249.332 54.9453 249.191 54.3594 249.191 53.7188ZM251.441 52.8164V53.7188C251.441 54 251.504 54.2656 251.629 54.5156C251.754 54.7656 251.926 54.9648 252.145 55.1133C252.371 55.2617 252.633 55.3359 252.93 55.3359C253.305 55.3359 253.598 55.2617 253.809 55.1133C254.02 54.9648 254.164 54.7656 254.242 54.5156C254.328 54.2656 254.371 54 254.371 53.7188V52.8164C254.371 52.5352 254.316 52.2734 254.207 52.0312C254.098 51.7812 253.934 51.582 253.715 51.4336C253.504 51.2773 253.234 51.1992 252.906 51.1992C252.578 51.1992 252.305 51.2773 252.086 51.4336C251.875 51.582 251.715 51.7812 251.605 52.0312C251.496 52.2734 251.441 52.5352 251.441 52.8164ZM253.738 42.375L245.406 55.7109L243.766 54.8438L252.098 41.5078L253.738 42.375Z" fill="white"/>
<path d="M124.41 312.434H124.633C125.57 312.434 126.375 312.32 127.047 312.094C127.727 311.859 128.285 311.523 128.723 311.086C129.16 310.648 129.484 310.113 129.695 309.48C129.906 308.84 130.012 308.113 130.012 307.301V304.066C130.012 303.449 129.949 302.906 129.824 302.438C129.707 301.969 129.535 301.582 129.309 301.277C129.09 300.965 128.832 300.73 128.535 300.574C128.246 300.418 127.926 300.34 127.574 300.34C127.199 300.34 126.867 300.434 126.578 300.621C126.289 300.801 126.043 301.047 125.84 301.359C125.645 301.672 125.492 302.031 125.383 302.438C125.281 302.836 125.23 303.254 125.23 303.691C125.23 304.129 125.281 304.547 125.383 304.945C125.484 305.336 125.637 305.684 125.84 305.988C126.043 306.285 126.297 306.523 126.602 306.703C126.906 306.875 127.266 306.961 127.68 306.961C128.078 306.961 128.434 306.887 128.746 306.738C129.066 306.582 129.336 306.379 129.555 306.129C129.781 305.879 129.953 305.602 130.07 305.297C130.195 304.992 130.258 304.684 130.258 304.371L131.371 304.98C131.371 305.527 131.254 306.066 131.02 306.598C130.785 307.129 130.457 307.613 130.035 308.051C129.621 308.48 129.141 308.824 128.594 309.082C128.047 309.34 127.461 309.469 126.836 309.469C126.039 309.469 125.332 309.324 124.715 309.035C124.098 308.738 123.574 308.332 123.145 307.816C122.723 307.293 122.402 306.684 122.184 305.988C121.965 305.293 121.855 304.539 121.855 303.727C121.855 302.898 121.988 302.121 122.254 301.395C122.527 300.668 122.914 300.027 123.414 299.473C123.922 298.918 124.527 298.484 125.23 298.172C125.941 297.852 126.73 297.691 127.598 297.691C128.465 297.691 129.254 297.859 129.965 298.195C130.676 298.531 131.285 299.008 131.793 299.625C132.301 300.234 132.691 300.965 132.965 301.816C133.246 302.668 133.387 303.613 133.387 304.652V305.824C133.387 306.934 133.266 307.965 133.023 308.918C132.789 309.871 132.434 310.734 131.957 311.508C131.488 312.273 130.902 312.93 130.199 313.477C129.504 314.023 128.695 314.441 127.773 314.73C126.852 315.02 125.82 315.164 124.68 315.164H124.41V312.434ZM147.285 304.969V307.922C147.285 309.203 147.148 310.309 146.875 311.238C146.602 312.16 146.207 312.918 145.691 313.512C145.184 314.098 144.578 314.531 143.875 314.812C143.172 315.094 142.391 315.234 141.531 315.234C140.844 315.234 140.203 315.148 139.609 314.977C139.016 314.797 138.48 314.52 138.004 314.145C137.535 313.77 137.129 313.297 136.785 312.727C136.449 312.148 136.191 311.461 136.012 310.664C135.832 309.867 135.742 308.953 135.742 307.922V304.969C135.742 303.688 135.879 302.59 136.152 301.676C136.434 300.754 136.828 300 137.336 299.414C137.852 298.828 138.461 298.398 139.164 298.125C139.867 297.844 140.648 297.703 141.508 297.703C142.195 297.703 142.832 297.793 143.418 297.973C144.012 298.145 144.547 298.414 145.023 298.781C145.5 299.148 145.906 299.621 146.242 300.199C146.578 300.77 146.836 301.453 147.016 302.25C147.195 303.039 147.285 303.945 147.285 304.969ZM143.898 308.367V304.512C143.898 303.895 143.863 303.355 143.793 302.895C143.73 302.434 143.633 302.043 143.5 301.723C143.367 301.395 143.203 301.129 143.008 300.926C142.812 300.723 142.59 300.574 142.34 300.48C142.09 300.387 141.812 300.34 141.508 300.34C141.125 300.34 140.785 300.414 140.488 300.562C140.199 300.711 139.953 300.949 139.75 301.277C139.547 301.598 139.391 302.027 139.281 302.566C139.18 303.098 139.129 303.746 139.129 304.512V308.367C139.129 308.984 139.16 309.527 139.223 309.996C139.293 310.465 139.395 310.867 139.527 311.203C139.668 311.531 139.832 311.801 140.02 312.012C140.215 312.215 140.438 312.363 140.688 312.457C140.945 312.551 141.227 312.598 141.531 312.598C141.906 312.598 142.238 312.523 142.527 312.375C142.824 312.219 143.074 311.977 143.277 311.648C143.488 311.312 143.645 310.875 143.746 310.336C143.848 309.797 143.898 309.141 143.898 308.367ZM149.535 302.121V301.219C149.535 300.57 149.676 299.98 149.957 299.449C150.238 298.918 150.652 298.492 151.199 298.172C151.746 297.852 152.418 297.691 153.215 297.691C154.035 297.691 154.719 297.852 155.266 298.172C155.82 298.492 156.234 298.918 156.508 299.449C156.789 299.98 156.93 300.57 156.93 301.219V302.121C156.93 302.754 156.789 303.336 156.508 303.867C156.234 304.398 155.824 304.824 155.277 305.145C154.73 305.465 154.055 305.625 153.25 305.625C152.438 305.625 151.754 305.465 151.199 305.145C150.652 304.824 150.238 304.398 149.957 303.867C149.676 303.336 149.535 302.754 149.535 302.121ZM151.773 301.219V302.121C151.773 302.395 151.824 302.656 151.926 302.906C152.035 303.148 152.199 303.348 152.418 303.504C152.645 303.652 152.918 303.727 153.238 303.727C153.574 303.727 153.848 303.652 154.059 303.504C154.27 303.348 154.426 303.148 154.527 302.906C154.629 302.656 154.68 302.395 154.68 302.121V301.219C154.68 300.93 154.625 300.664 154.516 300.422C154.414 300.172 154.254 299.973 154.035 299.824C153.824 299.668 153.551 299.59 153.215 299.59C152.902 299.59 152.637 299.668 152.418 299.824C152.199 299.973 152.035 300.172 151.926 300.422C151.824 300.664 151.773 300.93 151.773 301.219ZM157.691 311.719V310.816C157.691 310.176 157.832 309.59 158.113 309.059C158.402 308.527 158.82 308.102 159.367 307.781C159.922 307.461 160.602 307.301 161.406 307.301C162.219 307.301 162.898 307.461 163.445 307.781C163.992 308.102 164.406 308.527 164.688 309.059C164.969 309.59 165.109 310.176 165.109 310.816V311.719C165.109 312.359 164.969 312.945 164.688 313.477C164.414 314.008 164.004 314.434 163.457 314.754C162.91 315.074 162.234 315.234 161.43 315.234C160.617 315.234 159.934 315.074 159.379 314.754C158.824 314.434 158.402 314.008 158.113 313.477C157.832 312.945 157.691 312.359 157.691 311.719ZM159.941 310.816V311.719C159.941 312 160.004 312.266 160.129 312.516C160.254 312.766 160.426 312.965 160.645 313.113C160.871 313.262 161.133 313.336 161.43 313.336C161.805 313.336 162.098 313.262 162.309 313.113C162.52 312.965 162.664 312.766 162.742 312.516C162.828 312.266 162.871 312 162.871 311.719V310.816C162.871 310.535 162.816 310.273 162.707 310.031C162.598 309.781 162.434 309.582 162.215 309.434C162.004 309.277 161.734 309.199 161.406 309.199C161.078 309.199 160.805 309.277 160.586 309.434C160.375 309.582 160.215 309.781 160.105 310.031C159.996 310.273 159.941 310.535 159.941 310.816ZM162.238 300.375L153.906 313.711L152.266 312.844L160.598 299.508L162.238 300.375Z" fill="white"/>
</svg>
