<svg width="48" height="16" viewBox="0 0 48 16" fill="none" xmlns="http://www.w3.org/2000/svg">
<path d="M38.6449 5.11607C37.7425 4.6587 37.0503 5.0419 36.3457 5.05426C35.8636 5.06662 35.3444 5.05426 34.9118 4.89356C33.9847 4.54745 33.8364 3.21245 34.6399 2.68091C35.0478 2.42133 35.5175 2.21118 35.9872 2.09993C38.9416 1.4077 41.9083 0.727841 44.8873 0.0850571C45.4312 -0.0385552 46.0369 -0.0138448 46.6055 0.0726838C47.4708 0.196296 47.9776 1.14812 47.6686 1.93924C47.5821 2.16174 47.4584 2.38424 47.3348 2.59438C46.0987 4.63398 44.8873 6.68594 43.6141 8.70082C43.3174 9.17055 42.9095 9.61555 42.4522 9.9493C41.5745 10.5921 40.6721 10.1718 40.4867 9.07166C40.4373 8.76263 40.4744 8.42888 40.4744 7.89734C39.9799 8.08276 39.6338 8.18165 39.3 8.3547C37.1739 9.44249 35.0601 10.5303 32.9464 11.6304C28.2367 14.0656 23.1439 14.8938 17.9151 15.0298C16.2834 15.0668 14.6023 14.8814 13.0324 14.4611C10.5726 13.806 8.16212 12.9531 5.80113 12.026C3.14347 10.9753 1.38817 8.93569 0.263302 6.33983C0.0778837 5.90719 -0.0457285 5.37566 0.0160776 4.91829C0.0655225 4.58454 0.399272 4.13953 0.708303 4.02827C1.01733 3.91702 1.56123 4.06536 1.79609 4.31259C2.19165 4.69579 2.4636 5.23968 2.7479 5.73413C3.92222 7.73665 5.57863 9.12111 7.77892 9.86278C10.041 10.6168 12.2413 11.5686 14.627 11.8777C19.8929 12.5452 24.9734 11.7541 29.8313 9.72681C32.4766 8.62666 34.986 7.18039 37.5571 5.88246C37.9156 5.69704 38.2123 5.4251 38.6449 5.11607Z" fill="#ED5E5D"/>
</svg>
