<svg width="45" height="23" viewBox="0 0 45 23" fill="none" xmlns="http://www.w3.org/2000/svg">
<path d="M23.1318 14.6434C21.5232 17.7264 19.0626 19.633 16.169 21.0693C14.9244 21.6817 13.6015 22.0583 12.2509 22.1799C9.09781 22.4798 6.08274 21.8381 3.27335 20.4024C1.59453 19.5406 0.416117 18.2344 0.273496 16.2222C0.258196 15.9394 0.239058 15.6465 0.285693 15.3747C0.399643 14.6733 0.9874 14.2764 1.71188 14.4508C2.04315 14.5325 2.34606 14.752 2.68404 14.912C2.94891 15.6077 2.22232 16.2769 2.76375 16.9712C3.26582 17.6229 3.85051 18.1277 4.58455 18.4485C7.27397 19.6298 10.0744 20.2839 12.9884 19.6594C15.9025 19.035 18.2229 17.3666 20.1007 15.0816C20.1886 14.9788 20.2093 14.8209 20.2477 14.6793C20.2588 14.6173 20.2458 14.553 20.2362 14.4065C19.6544 14.2124 19.0447 14.0058 18.4412 13.7853C16.9495 13.2333 15.5492 12.4965 14.3856 11.3809C12.2044 9.29037 11.8785 6.736 13.4568 4.14942C14.182 2.96127 15.1103 1.9729 16.2556 1.19055C17.7721 0.139896 19.4632 -0.0882638 21.2021 0.415788C23.0826 0.958282 24.2596 2.23041 24.6154 4.19614C24.9233 5.9146 24.8624 7.63489 24.5552 9.34504C24.4139 10.1262 24.2788 10.8934 24.1091 11.8123C26.3051 12.0615 28.2599 11.2827 30.2223 10.7666C32.5972 10.1511 35.6873 8.10884 37.4935 6.15128C36.8488 5.76175 36.1045 5.92963 35.4809 5.71679C34.8813 5.50635 34.2739 5.27576 33.7343 4.9501C33.3277 4.70082 33.3178 4.21972 33.5114 3.78813C33.6949 3.36038 34.0142 3.07718 34.5121 3.14163C35.082 3.2133 35.6384 3.37091 36.217 3.40465C38.3026 3.54581 40.3816 3.60869 42.4309 3.04788C42.6402 2.99128 42.8496 2.93467 43.0604 2.91216C43.6044 2.85514 44.0725 3.0233 44.3652 3.48909C44.6618 3.96496 44.5532 4.46811 44.2233 4.90543C43.5835 5.7724 42.8804 6.59422 42.2724 7.48376C41.3397 8.8548 40.5121 10.2897 40.1996 11.9557C40.164 12.1655 40.0944 12.3767 40.007 12.5717C39.735 13.2524 39.2707 13.5793 38.7234 13.4759C38.1659 13.3764 37.7407 12.9264 37.6918 12.2523C37.654 11.7587 37.7386 11.2532 37.8031 10.7553C37.8478 10.3573 37.9267 9.95784 38.0469 9.24248C35.619 10.871 33.494 12.4766 30.9088 13.2067C28.3779 13.9278 25.8446 14.4304 23.1318 14.6434ZM21.525 11.9995C22.1693 10.0224 22.5783 8.21581 22.5158 6.32312C22.4924 5.6855 22.4374 5.02531 22.2714 4.40734C21.902 3.01248 21.0744 2.41549 19.6191 2.32297C18.6363 2.25841 17.7399 2.54197 17.0397 3.1895C16.4187 3.77224 15.8108 4.41932 15.366 5.13125C14.2685 6.88827 14.5058 8.39113 16.0645 9.72576C17.5636 11.0253 19.3328 11.7603 21.525 11.9995Z" fill="#ED5E5D"/>
</svg>
