<svg width="57" height="30" viewBox="0 0 57 30" fill="none" xmlns="http://www.w3.org/2000/svg">
<path d="M18.9152 23.9393C20.6735 23.2908 21.7977 22.3828 22.9939 21.5901C27.8796 18.3474 32.8086 15.2056 37.9537 12.3952C42.0035 10.1902 46.0677 8.04273 50.3481 6.29887C51.0111 6.02504 51.8758 5.86651 51.8758 4.74237C51.2272 4.74237 50.5787 4.69913 49.9446 4.75677C48.5178 4.88648 47.091 5.08824 45.6498 5.23236C45.0733 5.29001 44.4968 5.30443 43.9203 5.27561C42.6088 5.21796 42.0323 4.81441 41.9747 4.00733C41.917 3.17143 42.4647 2.60936 43.6465 2.40759C44.6842 2.22023 45.7362 2.10495 46.7739 1.932C49.051 1.55728 51.3137 1.15374 53.5909 0.779029C54.0665 0.706968 54.542 0.634904 55.0176 0.649316C56.3003 0.692552 57.1507 1.68699 56.9777 2.95526C56.9056 3.51733 56.7183 4.07939 56.4589 4.58382C55.7815 5.95297 54.9456 7.25007 54.3259 8.64805C53.4467 10.6658 52.7117 12.7411 51.919 14.802C51.5731 15.6956 51.3137 16.6324 50.8814 17.4683C50.694 17.8286 50.1608 18.1601 49.7572 18.2033C49.1519 18.2898 48.6907 17.843 48.4457 17.2809C48.0566 16.3585 48.0998 15.4073 48.316 14.4561C48.561 13.3608 48.806 12.2511 49.0654 11.0549C48.0998 10.6946 47.4657 11.199 46.8315 11.5161C40.8073 14.4994 34.9416 17.7853 29.3064 21.446C25.2854 24.0546 21.2932 26.7209 17.2867 29.3583C17.0417 29.5168 16.8111 29.7762 16.5517 29.7906C16.004 29.8195 15.3122 29.9204 14.9375 29.6465C14.5772 29.3727 14.3322 28.6377 14.3898 28.1477C14.4907 27.3118 14.8654 26.5047 15.1248 25.6832C15.759 23.579 16.4508 21.4748 16.9984 19.3418C17.2146 18.5348 17.1858 17.6268 17.1137 16.7765C17.0128 15.71 16.3499 15.2776 15.3122 15.4218C14.9375 15.4794 14.5484 15.537 14.1881 15.6668C10.4697 16.9783 6.90995 18.6212 3.50869 20.6533C2.78808 21.0857 2.74484 21.619 2.9322 22.3252C2.06747 22.8008 1.20272 23.2908 0.352408 22.354C-0.281726 21.6478 -0.0511249 20.6101 0.972137 19.558C1.43332 19.0824 1.95218 18.6357 2.49984 18.2609C5.91551 15.8973 9.59059 14.0238 13.5395 12.7555C17.6614 11.4296 20.1259 13.2888 20.0682 17.6124C20.0538 18.9383 19.7223 20.2642 19.5062 21.5901C19.3909 22.2099 19.1891 22.844 18.9152 23.9393Z" fill="#ED5E5D"/>
</svg>
