<svg width="61" height="16" viewBox="0 0 61 16" fill="none" xmlns="http://www.w3.org/2000/svg">
<path d="M2.22 1.82L0.66 1.54V0.139999H11.6L11.86 3.68H10.28L9.58 1.66L5.64 1.46V6.66L8.08 6.6L8.44 4.96H9.82V9.98H8.44L8.1 8.24L5.64 8.18V13.62L10.02 13.34L11.24 10.76L12.94 11.24L12.46 15H0.68V13.68L2.22 13.48V1.82ZM32.2445 9.68H20.3845V7.56H32.2445V9.68ZM39.1517 0.139999H45.5317V1.54L43.8717 1.82L46.2517 10.64L46.6317 12.5L46.9717 10.64L49.0117 3.52L48.4317 1.82L47.1717 1.54V0.139999H53.8517V1.54L51.9517 1.82L54.3317 10.64L54.7717 12.66L55.1117 10.64L57.2517 1.82L55.5517 1.54V0.139999H60.4117V1.54L59.1717 1.82L55.4717 15.1H52.4117L49.8317 6.2L47.3917 15.1H44.3717L40.3117 1.82L39.1517 1.54V0.139999Z" fill="white"/>
</svg>
