<svg width="168" height="34" viewBox="0 0 168 34" fill="none" xmlns="http://www.w3.org/2000/svg">
<path d="M6.26863 27.3694C5.46893 27.3179 4.66923 27.0212 3.86952 26.4795C3.06982 25.9635 2.33461 25.4734 1.6639 25.009C1.22535 24.5705 0.889991 24.1061 0.657819 23.616C0.425648 23.1001 0.232171 22.4294 0.0773905 21.6039C-0.0257968 21.1137 -0.0257968 20.4688 0.0773905 19.6691C0.180578 18.8694 0.348257 18.0697 0.580429 17.27C0.8126 16.4445 1.03187 15.7996 1.23825 15.3352C1.54781 14.6129 1.93476 13.839 2.39911 13.0135C2.88925 12.1622 3.36649 11.3625 3.83083 10.6144C4.32097 9.8405 4.70792 9.22137 4.99169 8.75703C5.17226 8.57645 5.24966 8.48616 5.22386 8.48616C5.22386 8.46037 5.22386 8.44747 5.22386 8.44747C5.22386 8.31849 5.35284 7.99603 5.61081 7.48009C5.89458 6.93836 6.13965 6.46111 6.34602 6.04836C6.73297 5.63562 6.95225 5.30026 7.00384 5.04229C7.05543 4.78432 7.01674 4.57794 6.88775 4.42316C6.83616 4.31998 6.93935 4.1007 7.19732 3.76534C7.48108 3.42999 7.86803 3.05593 8.35817 2.64318C8.84831 2.20464 9.39005 1.81768 9.98337 1.48232C10.6025 0.992185 11.1958 0.734217 11.7634 0.70842C12.3567 0.656827 12.7049 0.772912 12.8081 1.05668C12.8081 1.13407 12.95 1.15986 13.2338 1.13407C13.5433 1.08247 13.8916 1.01798 14.2785 0.940591C14.6913 0.837405 15.0525 0.760015 15.362 0.70842C15.491 0.55364 15.7877 0.437554 16.252 0.360163C16.7421 0.256975 17.3097 0.166687 17.9546 0.0892971C18.29 0.115094 18.664 0.127992 19.0768 0.127992C19.4895 0.102195 19.8507 0.0763977 20.1602 0.0505997C20.4956 0.0248032 20.6633 0.011906 20.6633 0.011906C20.8438 -0.039687 21.1018 0.076398 21.4372 0.360163C21.7983 0.618131 22.0821 0.979287 22.2885 1.44363C22.469 1.90797 22.3143 2.30782 21.8241 2.64318C21.334 2.97854 20.5601 3.21071 19.5024 3.3397C18.7285 3.44288 18.1223 3.53317 17.6837 3.61056C17.271 3.66216 16.8195 3.73955 16.3294 3.84274C15.8651 3.92013 15.1814 4.06201 14.2785 4.26838C13.6336 4.39737 13.0919 4.50056 12.6533 4.57795C12.2148 4.65534 11.8278 4.81012 11.4925 5.04229C11.1829 5.27446 10.8347 5.68721 10.4477 6.28054C10.2671 6.40952 10.035 6.74488 9.7512 7.28661C9.46744 7.82835 9.18367 8.37008 8.89991 8.91181C8.1776 9.91789 7.63586 10.666 7.27471 11.1561C6.93935 11.6205 6.82326 11.9171 6.92645 12.0461C6.92645 12.0461 7.10703 12.0848 7.46818 12.1622C7.82934 12.2396 8.06151 12.2783 8.1647 12.2783C8.42266 12.1493 8.73223 12.059 9.09338 12.0074C9.48034 11.9558 9.7899 11.9042 10.0221 11.8527C11.6215 11.4399 12.7952 11.1432 13.5433 10.9627C14.3172 10.7563 14.859 10.6144 15.1685 10.537C15.5039 10.4596 15.8006 10.408 16.0585 10.3822C16.4197 10.0985 16.7808 10.1243 17.142 10.4596C17.5289 10.7692 17.7998 11.1432 17.9546 11.5818C18.1352 12.0977 18.1352 12.4976 17.9546 12.7813C17.774 13.0651 17.3742 13.2973 16.755 13.4779C16.1617 13.6584 15.3104 13.8777 14.2012 14.1357C13.0919 14.3678 11.6989 14.7161 10.0221 15.1804C8.60324 15.5932 7.45528 15.8383 6.57819 15.9157C5.7011 15.993 5.28835 15.7738 5.33994 15.2578C5.15937 15.1546 4.95299 15.2578 4.72082 15.5674C4.51445 15.8512 4.32097 16.251 4.14039 16.7669C3.95981 17.2829 3.79213 17.8375 3.63735 18.4308C3.50837 19.0242 3.43098 19.5788 3.40518 20.0947C3.37938 20.6107 3.41808 21.0105 3.52127 21.2943C3.72764 21.8876 4.0501 22.4036 4.48865 22.8421C4.95299 23.2548 5.62371 23.5902 6.5008 23.8482C7.01674 23.874 7.51978 23.9127 8.00992 23.9643C8.50006 24.0159 9.05469 23.9127 9.67381 23.6547C11.1958 23.3967 12.2535 23.1259 12.8468 22.8421C13.4401 22.5583 13.8013 22.3649 13.9303 22.2617C14.1367 22.1585 14.2656 22.0553 14.3172 21.9521C14.3946 21.8489 14.4978 21.7973 14.6268 21.7973C14.5494 21.9263 14.5752 21.9263 14.7042 21.7973C14.8332 21.6683 15.0396 21.4878 15.3233 21.2556C15.8651 20.7913 16.4068 20.5075 16.9485 20.4043C17.4903 20.3011 17.9417 20.3011 18.3029 20.4043C18.664 20.4817 18.8575 20.5849 18.8833 20.7139C19.0381 20.9718 18.9607 21.3846 18.6511 21.9521C18.3415 22.4938 17.8643 23.0743 17.2194 23.6934C16.6003 24.3125 15.8651 24.8672 15.0138 25.3573C13.6465 26.0796 12.1632 26.5826 10.5638 26.8664C8.9644 27.176 7.53267 27.3436 6.26863 27.3694Z" fill="#0C0C0C"/>
<path d="M39.5922 24.9316C39.4116 24.8801 39.1278 24.7124 38.7409 24.4286C38.3539 24.1448 38.0057 23.7192 37.6961 23.1517C37.4124 22.5841 37.2834 21.8489 37.3092 20.946C37.335 20.1721 37.3866 19.6304 37.464 19.3208C37.5671 18.9855 37.5284 18.8049 37.3479 18.7791C37.2189 18.7533 36.9609 18.8694 36.574 19.1274C36.187 19.3853 35.684 19.7981 35.0648 20.3656C34.4457 20.9331 33.6976 21.6812 32.8205 22.6099C32.511 22.8679 32.1627 23.1904 31.7758 23.5773C31.4146 23.9385 31.0405 24.2093 30.6536 24.3899C30.2924 24.5705 29.97 24.5318 29.6862 24.2738L29.2993 23.9256C29.1187 23.7708 28.9639 23.5644 28.8349 23.3064C28.7059 23.0485 28.6672 22.8292 28.7188 22.6486L29.8023 19.6304C30.1119 18.9597 30.3182 18.4695 30.4214 18.16C30.5504 17.8504 30.602 17.6569 30.5762 17.5795C30.5762 17.5022 30.5117 17.4764 30.3827 17.5022C30.2279 17.528 30.0087 17.6698 29.7249 17.9278C29.4411 18.16 29.2477 18.3535 29.1445 18.5082C29.0413 18.5082 28.8994 18.6114 28.7188 18.8178C28.564 19.0242 28.4093 19.2047 28.2545 19.3595C28.0997 19.5143 27.8288 19.811 27.4419 20.2495C27.0549 20.6623 26.6422 21.1008 26.2036 21.5652C25.8683 21.8747 25.4813 22.2875 25.0428 22.8034C24.6042 23.3193 24.2173 23.7837 23.8819 24.1964C23.5466 24.6092 23.3402 24.8156 23.2628 24.8156C22.7985 24.7898 22.3728 24.635 21.9859 24.3512C21.6247 24.0675 21.3796 23.7192 21.2506 23.3064C21.0959 23.0227 21.083 22.5067 21.2119 21.7586C21.3409 20.9847 21.586 19.7594 21.9472 18.0826C22.0503 17.6956 22.1406 17.3603 22.218 17.0765C22.3212 16.7927 22.4244 16.509 22.5276 16.2252C22.6308 15.9414 22.7469 15.619 22.8758 15.2578C23.0306 14.8967 23.2241 14.4581 23.4563 13.9422C23.5853 13.581 23.6369 13.2457 23.6111 12.9361C23.5853 12.6008 23.5595 12.3299 23.5337 12.1235C23.5337 11.7366 23.6498 11.427 23.8819 11.1948C24.1399 10.9627 24.4237 10.8079 24.7332 10.7305C25.0428 10.6273 25.2878 10.6015 25.4684 10.6531C26.1907 10.7305 26.6809 10.9885 26.9388 11.427C27.1968 11.8656 27.3387 12.2912 27.3645 12.7039C27.3903 13.0909 27.3387 13.4392 27.2097 13.7487C27.0807 14.0583 26.9775 14.3162 26.9001 14.5226L26.4745 15.5674C26.2165 16.1607 26.0231 16.5993 25.8941 16.883C25.7909 17.141 25.7264 17.3216 25.7006 17.4248C25.7006 17.5022 25.7006 17.5795 25.7006 17.6569C25.7264 17.7343 25.8425 17.6956 26.0489 17.5409C26.2552 17.3861 26.5003 17.1797 26.7841 16.9217C27.0936 16.638 27.3774 16.3929 27.6354 16.1865C28.0997 15.7996 28.5898 15.4126 29.1058 15.0257C29.6475 14.6129 30.1763 14.2518 30.6923 13.9422C31.2082 13.6326 31.6339 13.4263 31.9692 13.3231C32.4078 13.4005 32.8076 13.6197 33.1688 13.9809C33.5557 14.342 33.8008 14.6516 33.904 14.9096C34.033 15.2965 34.0459 15.6448 33.9427 15.9543C33.8653 16.2639 33.8008 16.5477 33.7492 16.8056C33.7234 16.9088 33.6718 17.1023 33.5944 17.3861C33.517 17.6698 33.4396 17.9407 33.3623 18.1987C33.2849 18.4308 33.2462 18.5469 33.2462 18.5469C33.2462 18.5469 33.3236 18.4695 33.4783 18.3148C33.6331 18.16 33.8395 17.9794 34.0975 17.773C34.3554 17.5409 34.6134 17.3345 34.8714 17.1539C36.1612 16.1736 37.1802 15.5545 37.9283 15.2965C38.7022 15.0128 39.36 15.232 39.9018 15.9543C40.2113 16.2381 40.4048 16.6251 40.4822 17.1152C40.5854 17.6053 40.637 18.2632 40.637 19.0887C40.6628 19.424 40.6886 19.7981 40.7144 20.2108C40.7659 20.6236 40.8175 20.9847 40.8691 21.2943C40.9465 21.6039 41.011 21.7973 41.0626 21.8747C41.14 21.9779 41.2819 22.0811 41.4883 22.1843C41.6946 22.2617 41.8881 22.3262 42.0687 22.3778C42.4298 22.5583 42.6233 22.8937 42.6491 23.3838C42.7007 23.8482 42.5201 24.2093 42.1074 24.4673C41.7204 24.6995 41.3077 24.8414 40.8691 24.8929C40.4564 24.9445 40.0307 24.9574 39.5922 24.9316Z" fill="#0C0C0C"/>
<path d="M44.6743 24.4286C44.5969 24.3254 44.4292 24.1964 44.1712 24.0417C43.9133 23.8869 43.7843 23.7579 43.7843 23.6547C43.7843 23.6031 43.7714 23.5386 43.7456 23.4612C43.7456 23.3838 43.694 23.3451 43.5908 23.3451C43.5134 23.2677 43.5521 22.984 43.7069 22.4938C43.8875 22.0037 44.1196 21.4233 44.4034 20.7526C44.713 20.0818 45.0354 19.4369 45.3708 18.8178C45.7061 18.1729 45.9899 17.6569 46.2221 17.27C46.3511 17.1926 46.4285 17.0894 46.4542 16.9604C46.5058 16.8056 46.5058 16.7283 46.4542 16.7283C46.4542 16.7283 46.5187 16.6122 46.6477 16.38C46.8025 16.122 46.9186 15.9543 46.996 15.877C47.2024 15.5158 47.3571 15.1546 47.4603 14.7935C47.5635 14.4065 47.5893 14.0841 47.5377 13.8261C47.4345 13.6971 47.3184 13.6584 47.1895 13.71C47.0605 13.7616 46.996 13.7874 46.996 13.7874C46.8928 13.8132 46.738 13.8648 46.5316 13.9422C46.3511 13.9938 46.1834 14.0712 46.0286 14.1744C45.4353 14.5871 44.9967 14.7935 44.713 14.7935C44.455 14.7935 44.197 14.4839 43.9391 13.8648C43.8359 13.581 43.7972 13.3102 43.823 13.0522C43.8488 12.7942 43.952 12.5879 44.1325 12.4331C44.3389 12.2525 44.5969 12.0719 44.9064 11.8913C45.216 11.685 45.4224 11.5431 45.5256 11.4657C45.8093 11.2851 46.2092 11.0916 46.7251 10.8853C47.241 10.6789 47.5506 10.5628 47.6538 10.537C48.3245 10.3306 48.892 10.3306 49.3564 10.537C49.8207 10.7176 50.169 11.0787 50.4012 11.6205C50.7623 12.059 50.9429 12.5234 50.9429 13.0135C50.9429 13.5036 50.7623 14.1099 50.4012 14.8322L50.0142 15.4126C49.8852 15.6706 49.8594 15.7996 49.9368 15.7996C50.04 15.7996 50.1561 15.7093 50.2851 15.5287C50.3625 15.4255 50.5172 15.2707 50.7494 15.0644C50.9816 14.858 51.1364 14.7548 51.2138 14.7548C51.2138 14.7548 51.2396 14.7419 51.2912 14.7161C51.3685 14.6903 51.4072 14.5871 51.4072 14.4065C51.4846 14.3291 51.562 14.2518 51.6394 14.1744C51.7426 14.097 51.7942 14.0583 51.7942 14.0583C51.8974 14.0583 52.0264 14.0067 52.1811 13.9035C52.3617 13.7745 52.6584 13.5423 53.0711 13.207C53.3549 13.0006 53.6129 12.8974 53.845 12.8974C54.4384 12.7168 54.9156 12.9103 55.2768 13.4779C55.6637 14.0454 55.8572 14.7806 55.8572 15.6835L55.0446 17.773L56.4376 16.0704C56.5924 15.8641 56.7472 15.6835 56.902 15.5287C57.0825 15.3739 57.2373 15.2449 57.3663 15.1417C57.4179 14.9612 57.4953 14.858 57.5985 14.8322C57.7017 14.8064 57.7533 14.7935 57.7533 14.7935C57.7533 14.7935 57.7791 14.7935 57.8306 14.7935C57.8822 14.7677 57.908 14.7161 57.908 14.6387C58.037 14.5355 58.1789 14.4452 58.3337 14.3678C58.4885 14.2647 58.5917 14.1615 58.6433 14.0583C59.0818 13.8777 59.6106 13.8519 60.2298 13.9809C60.8489 14.0841 61.2874 14.4065 61.5454 14.9483C61.726 15.2578 61.8936 15.5287 62.0484 15.7609C62.2032 15.993 62.2806 16.3413 62.2806 16.8056C62.229 17.1926 62.1774 17.4635 62.1258 17.6182C62.1 17.773 62.0742 17.9407 62.0484 18.1213C62.0226 18.2761 61.9839 18.5598 61.9323 18.9726C61.8292 19.179 61.7647 19.3982 61.7389 19.6304C61.7389 19.8626 61.7389 20.0818 61.7389 20.2882C61.7389 20.6236 61.7518 20.8557 61.7776 20.9847C61.8034 21.0879 61.9065 21.1395 62.0871 21.1395C62.4483 21.0621 62.7449 20.946 62.9771 20.7913C63.2351 20.6107 63.5189 20.3785 63.8284 20.0947C64.2154 19.7336 64.5507 19.682 64.8345 19.94C65.144 20.1721 65.3375 20.443 65.4149 20.7526C65.4665 20.8557 65.4149 21.0879 65.2601 21.4491C65.1054 21.8102 64.9248 22.1585 64.7184 22.4938C64.512 22.8292 64.3444 22.9969 64.2154 22.9969C64.138 22.9969 63.9832 23.1001 63.751 23.3064C63.5188 23.5128 63.3383 23.6547 63.2093 23.7321C63.0287 23.9127 62.8481 24.0803 62.6676 24.2351C62.5128 24.3899 62.3322 24.4673 62.1258 24.4673C62.0226 24.4673 61.8937 24.506 61.7389 24.5834C61.6099 24.635 61.4551 24.6608 61.2745 24.6608C61.0166 24.7382 60.6167 24.6995 60.075 24.5447C59.559 24.3899 59.2237 24.0288 59.0689 23.4612C58.9657 23.1775 58.8109 22.8163 58.6045 22.3778C58.424 21.9392 58.3853 21.3975 58.4885 20.7526C58.5917 20.2882 58.6561 19.8626 58.6819 19.4756C58.7077 19.0887 58.7593 18.8178 58.8367 18.663C58.8367 18.5856 58.8367 18.405 58.8367 18.1213C58.8367 17.8117 58.798 17.6569 58.7206 17.6569C58.6174 17.6569 58.424 17.7859 58.1402 18.0439C57.8564 18.3019 57.5211 18.6501 57.1341 19.0887C56.7472 19.5014 56.3473 19.9529 55.9346 20.443C55.5476 20.9331 55.1994 21.4233 54.8898 21.9134C54.6576 22.1972 54.4513 22.5454 54.2707 22.9582C54.0901 23.3709 53.9611 23.6031 53.8837 23.6547C53.7032 23.8611 53.3936 23.8869 52.955 23.7321C52.5423 23.5773 52.2327 23.3322 52.0264 22.9969C51.949 22.8421 51.8587 22.7518 51.7555 22.726C51.6523 22.6744 51.562 22.597 51.4846 22.4938C51.433 22.3649 51.433 22.1198 51.4846 21.7586C51.562 21.3975 51.7297 20.817 51.9877 20.0173C52.2714 19.1403 52.5165 18.3535 52.7229 17.6569C52.9551 16.9346 53.0711 16.5735 53.0711 16.5735C53.0711 16.4703 52.8777 16.5735 52.4907 16.883C52.1038 17.1668 51.6523 17.528 51.1364 17.9665C50.9042 18.2503 50.5946 18.6114 50.2077 19.05C49.8465 19.4885 49.4209 20.0045 48.9307 20.5978C48.4664 21.1911 47.9376 21.8876 47.3442 22.6873C46.5961 23.745 46.0286 24.3899 45.6416 24.6221C45.2805 24.8543 44.958 24.7898 44.6743 24.4286Z" fill="#0C0C0C"/>
<path d="M68.2128 25.0477C68.1096 24.8414 67.8774 24.635 67.5162 24.4286C67.1809 24.2222 67.0132 24.0675 67.0132 23.9643C67.0132 23.8611 66.9487 23.7063 66.8197 23.4999C66.7165 23.2677 66.6134 23.1001 66.5102 22.9969C66.3812 22.8421 66.4199 22.468 66.6263 21.8747C66.8326 21.2556 67.1422 20.5075 67.5549 19.6304C67.9677 18.7533 68.4191 17.8633 68.9093 16.9604C69.1156 16.7541 69.322 16.4832 69.5284 16.1478C69.7348 15.8125 69.8896 15.5932 69.9927 15.49C69.9927 15.3868 70.0314 15.2965 70.1088 15.2191C70.1862 15.116 70.2765 15.0644 70.3797 15.0644L70.6893 14.4452C70.7409 14.342 70.8956 14.1357 71.1536 13.8261C71.4374 13.5165 71.7727 13.1812 72.1597 12.82C72.5466 12.4331 72.9336 12.0719 73.3205 11.7366C73.7333 11.4012 74.0686 11.1561 74.3266 11.0014C74.8683 10.6402 75.423 10.4725 75.9905 10.4983C76.5838 10.5241 77.0869 10.7047 77.4996 11.0401C77.577 11.1174 77.7447 11.2722 78.0027 11.5044C78.2864 11.7366 78.596 11.9945 78.9313 12.2783C79.2925 12.5621 79.6021 12.82 79.86 13.0522L81.2918 14.3291L80.6339 16.2639C80.2986 17.2958 80.2083 18.1987 80.3631 18.9726C80.5178 19.7465 80.7629 20.4172 81.0983 20.9847C81.2273 21.2685 81.3949 21.4878 81.6013 21.6425C81.8335 21.7973 82.1302 21.9005 82.4913 21.9521C82.6977 21.9779 82.8912 22.0553 83.0717 22.1843C83.2523 22.3133 83.3426 22.5196 83.3426 22.8034C83.3426 23.4225 83.2265 23.874 82.9944 24.1577C82.788 24.4157 82.5558 24.5705 82.2978 24.6221C81.4465 24.7253 80.6339 24.635 79.86 24.3512C79.0861 24.0675 78.3896 23.3322 77.7705 22.1456C77.6673 21.9908 77.5254 21.707 77.3448 21.2943C77.1901 20.8557 77.0998 20.572 77.074 20.443C76.9708 20.572 76.8289 20.7397 76.6483 20.946C76.4935 21.1266 76.3388 21.2943 76.184 21.4491C74.3524 23.3064 72.7788 24.5189 71.4632 25.0864C70.1733 25.6282 69.0899 25.6153 68.2128 25.0477ZM70.341 21.836C70.5216 21.8618 70.8053 21.7715 71.1923 21.5652C71.5792 21.333 72.0952 20.9589 72.7401 20.443C73.6172 19.6949 74.3395 19.0758 74.907 18.5856C75.4746 18.0955 76.0292 17.4635 76.5709 16.6896L77.4222 15.2965C77.1643 14.7032 76.9321 14.3162 76.7257 14.1357C76.5193 13.9551 76.313 13.8648 76.1066 13.8648C75.7712 13.8648 75.3714 14.0841 74.907 14.5226C74.4427 14.9354 73.9139 15.5545 73.3205 16.38C72.753 17.1797 72.1081 18.1858 71.3858 19.3982C71.0504 19.9658 70.7924 20.5204 70.6119 21.0621C70.4313 21.5781 70.341 21.836 70.341 21.836Z" fill="#0C0C0C"/>
<path d="M109.519 28.2594C109.184 28.2852 108.874 28.2078 108.59 28.0273C108.332 27.8725 108.152 27.6661 108.049 27.4081C107.945 27.2792 107.778 26.9954 107.546 26.5568C107.313 26.1441 107.172 25.7829 107.12 25.4734C107.043 24.6479 106.991 23.8482 106.965 23.0743C106.965 22.3004 107.004 21.2169 107.081 19.8239C107.159 18.6888 107.313 17.6827 107.546 16.8056C107.778 15.9028 108.01 15.1417 108.242 14.5226C108.474 13.8777 108.655 13.4005 108.784 13.0909C108.913 12.7555 108.939 12.5879 108.861 12.5879C108.758 12.5879 108.642 12.691 108.513 12.8974C108.41 13.078 108.281 13.3231 108.126 13.6326C107.997 13.9422 107.842 14.2776 107.662 14.6387C107.507 14.9999 107.339 15.3481 107.159 15.6835C106.797 16.4832 106.372 17.3345 105.882 18.2374C105.417 19.1145 104.94 19.9658 104.45 20.7913C103.96 21.6168 103.534 22.3391 103.173 22.9582C102.941 23.2162 102.67 23.5902 102.36 24.0803C102.051 24.5447 101.715 25.0348 101.354 25.5508C100.993 26.0667 100.619 26.4924 100.232 26.8277C99.6646 27.3694 99.0842 27.6919 98.4909 27.7951C97.8976 27.9241 97.3429 27.8596 96.827 27.6016C96.569 27.5758 96.2982 27.4339 96.0144 27.176C95.7306 26.9438 95.4985 26.6471 95.3179 26.286C95.1631 25.9248 95.1244 25.5895 95.2018 25.2799C95.176 24.9187 95.176 24.3641 95.2018 23.616C95.2534 22.8421 95.3308 22.0037 95.434 21.1008C95.5372 20.1721 95.6403 19.2821 95.7435 18.4308C95.8725 17.5795 95.9886 16.8701 96.0918 16.3026C96.324 14.6516 96.6335 12.9619 97.0205 11.2335C97.4332 9.50514 97.8073 7.76385 98.1426 6.00967C98.349 5.49373 98.5296 4.9133 98.6844 4.26838C98.865 3.59767 99.0455 2.97854 99.2261 2.41101C99.2519 1.84348 99.4583 1.49522 99.8452 1.36624C100.232 1.21146 100.645 1.18566 101.083 1.28885C101.548 1.39204 101.87 1.57261 102.051 1.83058C102.309 2.08855 102.554 2.4884 102.786 3.03014C103.018 3.57187 102.954 4.25549 102.593 5.08098C102.077 6.34503 101.574 7.89284 101.083 9.72441C100.619 11.5302 100.193 13.7229 99.8065 16.3026C99.7033 16.9217 99.5873 17.6182 99.4583 18.3921C99.3551 19.1403 99.2519 19.8626 99.1487 20.5591C99.0713 21.2556 99.0068 21.836 98.9552 22.3004C98.9294 22.7389 98.9423 22.9711 98.9939 22.9969C99.2003 23.0485 99.4196 22.9324 99.6518 22.6486C99.9097 22.3649 100.181 21.9134 100.464 21.2943C101.522 19.5401 102.515 17.7988 103.444 16.0704C104.398 14.342 105.353 12.5363 106.307 10.6531C106.746 9.90499 107.184 9.09239 107.623 8.2153C108.087 7.31241 108.526 6.48691 108.939 5.7388C109.377 4.9649 109.803 4.21679 110.216 3.49448C110.628 2.77217 110.989 2.16594 111.299 1.6758C111.609 1.15987 111.841 0.876099 111.996 0.824506C112.692 0.824506 113.208 1.00508 113.543 1.36624C113.904 1.7274 114.188 2.16594 114.395 2.68188C114.446 2.81086 114.472 3.03013 114.472 3.3397C114.498 3.64926 114.459 3.92012 114.356 4.1523C114.33 4.33287 114.214 4.70693 114.008 5.27446C113.827 5.84199 113.659 6.47401 113.505 7.17053C113.247 7.86704 113.015 8.56356 112.808 9.26007C112.628 9.93079 112.499 10.4854 112.421 10.924C112.215 12.0332 111.957 13.2457 111.647 14.5613C111.338 15.877 111.067 17.1926 110.835 18.5082C110.628 19.7981 110.512 20.946 110.486 21.9521C110.461 22.6744 110.461 23.1517 110.486 23.3838C110.538 23.5902 110.615 23.8095 110.719 24.0417C110.77 24.248 110.886 24.2996 111.067 24.1964C111.247 24.0932 111.428 23.9127 111.609 23.6547C111.97 23.113 112.241 22.6486 112.421 22.2617C112.628 21.8747 112.834 21.462 113.04 21.0234C113.247 20.5591 113.53 19.9787 113.892 19.2821C114.537 18.0955 115.194 16.7927 115.865 15.3739C116.562 13.9551 117.219 12.5492 117.839 11.1561C118.483 9.76311 119.038 8.52486 119.502 7.44139C119.993 6.04836 120.405 4.9262 120.741 4.07491C121.076 3.19782 121.386 2.5271 121.669 2.06275C121.953 1.59841 122.224 1.28885 122.482 1.13407C122.611 1.03088 122.882 0.979288 123.295 0.979288C123.733 0.979288 124.068 1.08248 124.301 1.28885C124.404 1.39204 124.584 1.55972 124.842 1.79189C125.1 2.02406 125.216 2.29493 125.191 2.60449C125.062 3.01724 124.817 3.68795 124.455 4.61664C124.12 5.54533 123.72 6.5772 123.256 7.71226C122.817 8.82152 122.379 9.89209 121.94 10.924C121.527 11.93 121.179 12.7297 120.895 13.3231C120.612 13.8648 120.341 14.3291 120.083 14.7161C119.825 15.1031 119.696 15.3997 119.696 15.6061C119.696 15.7093 119.567 16.0317 119.309 16.5735C119.051 17.0894 118.716 17.7214 118.303 18.4695C117.916 19.2176 117.49 19.9916 117.026 20.7913C116.562 21.591 116.123 22.3262 115.71 22.9969C115.298 23.6676 114.949 24.1835 114.666 24.5447C114.021 25.3444 113.324 26.0151 112.576 26.5568C111.854 27.1244 111.209 27.55 110.641 27.8338C110.074 28.1176 109.7 28.2594 109.519 28.2594Z" fill="#0C0C0C"/>
<path d="M125.219 25.3186C125.012 25.3702 124.741 25.396 124.406 25.396C124.071 25.3702 123.774 25.3315 123.516 25.2799C123.284 25.2025 123.168 25.1251 123.168 25.0477C123.168 24.9187 123.103 24.8543 122.974 24.8543C122.974 24.8543 122.833 24.7511 122.549 24.5447C122.265 24.3125 122.007 24.1448 121.775 24.0417C121.543 23.6805 121.388 23.2677 121.31 22.8034C121.259 22.3133 121.414 21.462 121.775 20.2495C121.801 19.424 122.033 18.5598 122.471 17.6569C122.91 16.7283 123.465 15.8254 124.135 14.9483C124.806 14.0712 125.502 13.2973 126.225 12.6266C126.947 11.93 127.592 11.4141 128.16 11.0787C128.521 10.7176 128.998 10.5241 129.591 10.4983C130.21 10.4725 130.752 10.5886 131.216 10.8466C131.474 10.9756 131.758 11.2335 132.068 11.6205C132.377 12.0074 132.674 12.4202 132.958 12.8587C133.242 13.2715 133.461 13.6455 133.616 13.9809C133.693 14.2647 133.757 14.5226 133.809 14.7548C133.886 14.9612 133.938 15.2191 133.964 15.5287C133.99 15.8383 133.964 16.3026 133.886 16.9217C133.757 17.3861 133.641 17.8633 133.538 18.3535C133.461 18.8178 133.422 19.295 133.422 19.7852C133.371 20.2753 133.422 20.6236 133.577 20.8299C133.757 21.0363 134.015 21.0492 134.351 20.8686C134.66 20.7139 134.983 20.701 135.318 20.8299C135.654 20.9331 135.886 21.1395 136.015 21.4491C136.169 21.7328 136.131 22.1069 135.899 22.5712C135.744 22.9066 135.499 23.2291 135.163 23.5386C134.828 23.8482 134.454 24.1061 134.041 24.3125C133.628 24.4931 133.229 24.5834 132.842 24.5834C132.558 24.5834 132.274 24.4802 131.99 24.2738C131.707 24.0417 131.449 23.7321 131.216 23.3451C130.984 22.9582 130.791 22.5325 130.636 22.0682L130.404 21.1782L129.011 22.4551C128.675 22.8163 128.34 23.1517 128.005 23.4612C127.695 23.745 127.502 23.9514 127.424 24.0803C127.295 24.3125 127.037 24.5189 126.65 24.6995C126.289 24.8801 125.812 25.0864 125.219 25.3186ZM126.263 21.6039C126.702 21.3459 127.076 21.0363 127.386 20.6752C127.721 20.314 128.043 19.9142 128.353 19.4756C128.663 19.0113 128.998 18.5211 129.359 18.0052C129.798 17.4119 130.107 16.9346 130.288 16.5735C130.494 16.2123 130.649 15.8254 130.752 15.4126C130.649 15.1288 130.507 14.8322 130.326 14.5226C130.146 14.1873 129.965 14.0067 129.785 13.9809C129.424 13.9809 128.985 14.2002 128.469 14.6387C127.979 15.0773 127.437 15.7093 126.844 16.5348C126.741 16.6638 126.612 16.8701 126.457 17.1539C126.302 17.4377 126.147 17.7085 125.993 17.9665C125.864 18.1987 125.773 18.3535 125.722 18.4308C125.644 18.534 125.528 18.7791 125.374 19.1661C125.245 19.5272 125.128 19.9013 125.025 20.2882C124.922 20.6494 124.87 20.9073 124.87 21.0621C124.87 21.2169 124.883 21.3846 124.909 21.5652C124.961 21.7457 125.09 21.8618 125.296 21.9134C125.502 21.965 125.825 21.8618 126.263 21.6039Z" fill="#0C0C0C"/>
<path d="M139.658 24.5447C139.555 24.5447 139.31 24.4544 138.923 24.2738C138.536 24.0675 138.291 23.9127 138.188 23.8095C138.007 23.6031 137.891 23.3838 137.839 23.1517C137.788 22.8937 137.762 22.4036 137.762 21.6812C137.762 20.8557 137.93 19.9271 138.265 18.8952C138.6 17.8375 139.168 16.4316 139.968 14.6774L141.554 11.4657C141.683 11.2851 141.799 11.1303 141.902 11.0014C142.006 10.8466 142.122 10.7047 142.251 10.5757C142.302 10.5757 142.367 10.5757 142.444 10.5757C142.547 10.5757 142.625 10.5886 142.676 10.6144C142.908 10.6402 143.27 10.7821 143.76 11.0401C144.276 11.298 144.585 11.685 144.688 12.2009C144.688 12.5363 144.637 12.9361 144.534 13.4005C144.431 13.839 144.121 14.4194 143.605 15.1417C143.399 15.3997 143.192 15.7738 142.986 16.2639C142.805 16.754 142.638 17.2184 142.483 17.6569C142.457 17.7085 142.38 17.8375 142.251 18.0439C142.147 18.2245 142.044 18.4179 141.941 18.6243C141.838 18.8049 141.786 18.921 141.786 18.9726L141.632 19.3208L143.295 17.6956C144.456 16.5348 145.437 15.7093 146.236 15.2191C147.036 14.729 147.707 14.5226 148.248 14.6C148.816 14.6774 149.267 14.9999 149.603 15.5674C149.783 15.8254 149.912 16.1091 149.99 16.4187C150.067 16.7025 150.119 17.0378 150.145 17.4248C150.17 17.8117 150.157 18.3019 150.106 18.8952V21.1008C150.596 20.9718 150.97 20.8686 151.228 20.7913C151.486 20.6881 151.744 20.5978 152.002 20.5204C152.208 20.4688 152.415 20.4172 152.621 20.3656C152.853 20.314 153.137 20.2753 153.472 20.2495C153.446 20.5849 153.305 20.9976 153.047 21.4878C152.789 21.9779 152.466 22.468 152.079 22.9582C151.718 23.4483 151.318 23.8611 150.88 24.1964C150.467 24.5318 150.08 24.6995 149.719 24.6995C149.384 24.6995 148.997 24.5963 148.558 24.3899C148.119 24.1577 147.745 23.7192 147.436 23.0743C147.333 22.7389 147.229 22.352 147.126 21.9134C147.023 21.4749 146.972 21.0105 146.972 20.5204V18.8178C146.972 18.663 146.959 18.5598 146.933 18.5082C146.933 18.4308 146.92 18.3921 146.894 18.3921C146.791 18.3921 146.456 18.663 145.888 19.2047C145.346 19.7465 144.792 20.314 144.224 20.9073C143.037 22.1456 142.044 23.0614 141.245 23.6547C140.471 24.248 139.942 24.5447 139.658 24.5447Z" fill="#0C0C0C"/>
<path d="M159.818 33.5994C159.095 33.8831 158.334 33.8316 157.535 33.4446C156.761 33.0834 156.09 32.503 155.523 31.7033C155.419 31.5485 155.265 31.2648 155.058 30.852C154.852 30.4651 154.645 30.0394 154.439 29.5751C154.258 29.1107 154.117 28.7109 154.013 28.3755C153.936 28.0402 153.936 27.8467 154.013 27.7951C154.117 27.5113 154.349 27.3436 154.71 27.2921C155.071 27.2405 155.432 27.2534 155.793 27.3307C156.155 27.4339 156.361 27.5629 156.413 27.7177C156.49 27.8983 156.567 28.0789 156.645 28.2594C156.722 28.4658 156.812 28.6464 156.916 28.8012C157.045 28.9817 157.161 29.1365 157.264 29.2655C157.548 29.7041 157.857 30.0007 158.193 30.1555C158.528 30.3361 158.786 30.3619 158.966 30.2329C159.405 29.8975 159.727 29.4977 159.934 29.0333C160.166 28.5948 160.463 27.808 160.824 26.6729C161.108 25.7184 161.353 24.8929 161.559 24.1964C161.765 23.4999 161.985 22.855 162.217 22.2617C162.294 21.9521 162.385 21.6941 162.488 21.4878C162.617 21.2556 162.733 21.0879 162.836 20.9847H163.068C162.501 21.3459 162.023 21.707 161.636 22.0682C161.249 22.4294 160.721 22.7518 160.05 23.0356C159.895 23.2162 159.508 23.3322 158.889 23.3838C158.296 23.4096 157.715 23.3322 157.148 23.1517C156.787 22.9453 156.49 22.7389 156.258 22.5325C156.051 22.3004 155.871 22.0424 155.716 21.7586C155.587 21.4749 155.445 21.1395 155.29 20.7526C155.11 20.3656 155.084 19.7336 155.213 18.8565C155.342 17.9794 155.574 17.1023 155.909 16.2252C156.219 15.5803 156.67 14.8838 157.264 14.1357C157.857 13.3876 158.489 12.7168 159.16 12.1235C159.831 11.5044 160.437 11.1174 160.979 10.9627C161.185 10.8595 161.546 10.7434 162.062 10.6144C162.578 10.4596 163.068 10.4467 163.532 10.5757C163.971 10.6273 164.306 10.7305 164.539 10.8853C164.771 11.0143 165.145 11.298 165.661 11.7366C165.996 12.0719 166.409 12.5105 166.899 13.0522C167.389 13.5681 167.699 14.0067 167.828 14.3678C168.008 14.7548 168.047 15.1804 167.944 15.6448C167.841 16.0833 167.66 16.4703 167.402 16.8056C167.17 17.141 166.925 17.4764 166.667 17.8117C166.409 18.1471 166.215 18.6114 166.086 19.2047C165.957 19.9787 165.712 20.8557 165.351 21.836C164.99 22.7905 164.706 23.6805 164.5 24.506L163.881 26.9051C163.236 29.0978 162.526 30.6843 161.752 31.6646C160.979 32.6707 160.334 33.3156 159.818 33.5994ZM159.005 20.2882C159.521 20.2624 159.96 20.2108 160.321 20.1334C160.708 20.0302 161.069 19.8239 161.404 19.5143C161.74 19.179 162.127 18.6759 162.565 18.0052C163.004 17.3861 163.313 16.8185 163.494 16.3026C163.674 15.7867 163.739 15.2062 163.687 14.5613C163.661 14.1486 163.545 13.8777 163.339 13.7487C163.133 13.6197 162.862 13.581 162.526 13.6326C162.036 13.71 161.598 13.9164 161.211 14.2518C160.824 14.5613 160.372 15.0515 159.856 15.7222C159.469 16.2381 159.147 16.8572 158.889 17.5795C158.631 18.3535 158.515 18.9726 158.541 19.4369C158.592 19.9013 158.747 20.185 159.005 20.2882Z" fill="#0C0C0C"/>
</svg>
