<svg width="46" height="46" viewBox="0 0 46 46" fill="none" xmlns="http://www.w3.org/2000/svg">
<circle cx="23" cy="23" r="23" fill="white"/>
<path d="M20.1651 34.1379C20.2222 34.1373 20.2806 34.1354 20.34 34.1333C20.2935 34.158 20.2458 34.1806 20.199 34.2051C20.188 34.1827 20.1762 34.1603 20.1651 34.1379ZM16.0612 25.5362C16.4519 25.4792 16.8335 25.3652 17.1272 25.1403C17.4932 24.8594 17.8616 24.5815 18.2299 24.3036C17.7163 25.1556 17.1671 25.9872 16.5817 26.7986C16.5017 26.6129 16.4189 26.4277 16.3412 26.2412C16.2443 26.0086 16.1515 25.7731 16.0612 25.5362ZM17.6899 13.6602C17.6737 13.6717 18.3034 13.3317 18.2765 13.2331C18.3655 13.2556 18.4591 13.2958 18.5534 13.3485C17.4457 14.7318 16.3379 16.115 15.2302 17.4983C15.2433 17.4464 15.2537 17.394 15.2679 17.3422C15.66 15.9279 16.453 14.5054 17.6899 13.6602ZM28.0524 20.3297C26.7078 22.2901 25.3442 24.2376 23.9376 26.1527C23.6863 26.1573 23.4135 26.1759 23.1472 26.2053C23.3913 25.7921 23.6288 25.3748 23.8588 24.9532C24.1185 24.8831 24.3113 24.7972 24.3779 24.7006C25.4727 23.1222 26.7026 21.6621 28.0524 20.3297ZM19.717 31.1336C19.5306 31.4678 19.3379 31.7993 19.1375 32.1272C18.9947 31.8481 18.8536 31.5687 18.7121 31.2895C19.0911 31.265 19.4537 31.2128 19.717 31.1336ZM17.5738 27.5101C18.0485 27.5167 18.9154 27.5138 19.3879 27.1992C18.8924 27.996 18.3773 28.7811 17.8536 29.5619C17.5125 28.8613 17.1798 28.1573 16.8628 27.4476C17.1639 27.5007 17.5004 27.5092 17.5738 27.5101ZM15.3129 21.3378C16.2728 20.4452 17.266 19.5969 18.2896 18.788C17.9232 19.3801 17.5278 19.9581 17.13 20.5376C16.5271 21.4177 15.9228 22.2974 15.3186 23.1768C15.187 22.633 15.0834 22.0843 15.0145 21.532C15.1247 21.4782 15.2282 21.417 15.3129 21.3378V21.3378ZM21.3624 19.0621C21.407 19.4349 21.439 19.8111 21.4579 20.1884C21.0903 20.2283 20.7563 20.2879 20.5494 20.3507C20.8325 19.9266 21.1047 19.4971 21.3624 19.0621ZM20.2948 15.2759C20.2351 15.2889 20.1829 15.3013 20.1371 15.3138C20.1734 15.2687 20.2093 15.2237 20.2453 15.1784C20.2626 15.2106 20.278 15.2435 20.2948 15.2759V15.2759ZM34.4018 21.472C34.9826 19.8953 36.5016 16.3302 34.7921 15.0442C34.1278 14.5443 32.5038 14.7702 31.8162 15.1497C29.2065 16.592 26.8302 18.3813 24.7452 20.4735C24.7167 17.9703 24.2139 15.3957 22.6641 13.7038C20.5641 11.4113 16.2701 12.0963 14.1295 13.9707C11.346 16.408 11.2893 20.7124 12.2163 24.0019C13.3394 27.9876 15.5841 31.7255 17.4449 35.4152C17.3834 35.4375 17.3231 35.4619 17.2612 35.4832C16.6608 35.6921 16.8023 35.9396 17.305 36.1035C17.8141 36.269 18.5359 36.2112 19.1322 36.0729C20.017 35.9751 20.935 35.6657 20.8623 35.5195C20.854 35.503 20.8453 35.4859 20.8371 35.4694C24.8994 33.8067 28.4701 31.0774 31.1076 27.5483C32.4925 25.6948 33.6025 23.6433 34.4018 21.472Z" fill="#EF706F"/>
</svg>
