<svg width="39" height="39" viewBox="0 0 39 39" fill="none" xmlns="http://www.w3.org/2000/svg">
<rect width="39" height="39" rx="6" fill="#EF706F"/>
<path d="M19.6166 31.0486C17.4187 31.0486 15.5258 30.579 13.9379 29.6398C12.3597 28.691 11.1398 27.3597 10.2781 25.6459C9.42602 23.9225 9 21.9037 9 19.5897C9 17.3046 9.42602 15.2907 10.2781 13.5479C11.1398 11.8051 12.3404 10.4448 13.8799 9.46686C15.429 8.48895 17.2396 8 19.3116 8C20.5703 8 21.7903 8.20817 22.9715 8.6245C24.1527 9.04084 25.2129 9.69439 26.1521 10.5852C27.0913 11.4759 27.832 12.633 28.3742 14.0562C28.9164 15.4699 29.1875 17.1885 29.1875 19.2121V20.7515H11.4545V17.4983H24.9321C24.9321 16.3558 24.6998 15.344 24.235 14.4629C23.7703 13.5721 23.1167 12.8702 22.2744 12.357C21.4417 11.8439 20.4638 11.5873 19.3406 11.5873C18.1207 11.5873 17.0556 11.8874 16.1455 12.4877C15.2451 13.0783 14.5479 13.8529 14.0541 14.8115C13.57 15.7603 13.328 16.7915 13.328 17.9049V20.4465C13.328 21.9376 13.5894 23.206 14.1122 24.2517C14.6448 25.2973 15.3854 26.0961 16.3343 26.648C17.2832 27.1902 18.3918 27.4613 19.6602 27.4613C20.4832 27.4613 21.2335 27.3451 21.9113 27.1128C22.589 26.8707 23.1748 26.5125 23.6686 26.038C24.1624 25.5636 24.54 24.9778 24.8014 24.2807L28.9116 25.0214C28.5824 26.2317 27.9917 27.2919 27.1397 28.202C26.2973 29.1025 25.2371 29.8044 23.9591 30.3079C22.6907 30.8017 21.2432 31.0486 19.6166 31.0486Z" fill="white"/>
</svg>
