<svg width="10" height="10" viewBox="0 0 10 10" fill="none" xmlns="http://www.w3.org/2000/svg">
<g clip-path="url(#clip0_15430_120904)">
<path d="M9.85947 4.64644L8.85824 3.64643L5.35394 0.146395C5.26006 0.0526582 5.13275 0 5 0C4.86725 0 4.73994 0.0526582 4.64607 0.146395L1.14176 3.64643L0.140529 4.64644C0.0493375 4.74075 -0.00112169 4.86705 1.89246e-05 4.99815C0.00115954 5.12925 0.0538087 5.25465 0.146627 5.34736C0.239445 5.44006 0.365005 5.49265 0.496265 5.49379C0.627525 5.49493 0.753981 5.44453 0.848398 5.35345L0.995079 5.20695V8.99999C0.995079 9.26521 1.10057 9.51957 1.28833 9.7071C1.4761 9.89464 1.73077 10 1.99631 10H3.49815C3.63093 10 3.75826 9.94732 3.85214 9.85355C3.94603 9.75978 3.99877 9.6326 3.99877 9.5V7.49997C3.99877 7.36736 4.05151 7.24019 4.1454 7.14642C4.23928 7.05265 4.36661 6.99997 4.49939 6.99997H5.50062C5.63339 6.99997 5.76072 7.05265 5.8546 7.14642C5.94849 7.24019 6.00123 7.36736 6.00123 7.49997V9.5C6.00123 9.6326 6.05397 9.75978 6.14786 9.85355C6.24174 9.94732 6.36907 10 6.50185 10H8.00369C8.26923 10 8.5239 9.89464 8.71167 9.7071C8.89943 9.51957 9.00492 9.26521 9.00492 8.99999V5.20695L9.1516 5.35345C9.24602 5.44453 9.37247 5.49493 9.50373 5.49379C9.63499 5.49265 9.76055 5.44006 9.85337 5.34736C9.94619 5.25465 9.99884 5.12925 9.99998 4.99815C10.0011 4.86705 9.95066 4.74075 9.85947 4.64644Z" fill="white"/>
</g>
<defs>
<clipPath id="clip0_15430_120904">
<rect width="10" height="10" fill="white"/>
</clipPath>
</defs>
</svg>
