<svg width="10" height="10" viewBox="0 0 10 10" fill="none" xmlns="http://www.w3.org/2000/svg">
<path d="M8.2987 5.63398V8.21158C8.29877 8.29334 8.28272 8.37431 8.25146 8.44985C8.22021 8.52539 8.17437 8.59404 8.11656 8.65184C8.05875 8.70965 7.99011 8.7555 7.91456 8.78675C7.83902 8.818 7.75805 8.83405 7.6763 8.83398H1.45443C1.37268 8.83405 1.29171 8.818 1.21617 8.78675C1.14062 8.7555 1.07198 8.70965 1.01417 8.65184C0.956363 8.59404 0.91052 8.52539 0.879266 8.44985C0.848012 8.37431 0.831961 8.29334 0.832031 8.21158V1.98972C0.831961 1.90796 0.848012 1.827 0.879266 1.75145C0.91052 1.67591 0.956363 1.60727 1.01417 1.54946C1.07198 1.49165 1.14062 1.44581 1.21617 1.41455C1.29171 1.3833 1.37268 1.36725 1.45443 1.36732H3.91736M5.75577 0.833984H8.83203V3.91025M4.62457 5.04145L8.77283 0.893184" stroke="black" stroke-linecap="round" stroke-linejoin="round"/>
</svg>
