<svg width="42" height="11" viewBox="0 0 42 11" fill="none" xmlns="http://www.w3.org/2000/svg">
<path d="M0 6.64464C0 6.19933 0.0536029 5.75401 0.160809 5.30869C0.268014 4.86338 0.43707 4.46342 0.667974 4.10881C0.907125 3.75421 1.21225 3.46558 1.58335 3.24292C1.96269 3.02026 2.42038 2.90894 2.9564 2.90894C3.26153 2.90894 3.52954 2.96666 3.76045 3.08211C3.99135 3.18932 4.18515 3.33364 4.34183 3.51506C4.49852 3.69649 4.61397 3.9109 4.68819 4.15829C4.77065 4.39745 4.81189 4.64897 4.81189 4.91286C4.81189 5.33343 4.71293 5.74164 4.51501 6.13748C4.32534 6.53331 4.06557 6.88379 3.73571 7.18892C3.41409 7.4858 3.04299 7.71258 2.62242 7.86926C2.20184 8.0177 1.77302 8.05069 1.33595 7.96822C1.34419 8.20737 1.42254 8.40117 1.57098 8.54961C1.72766 8.6898 1.91321 8.797 2.12762 8.87122C2.34203 8.94544 2.56469 8.99492 2.7956 9.01966C3.0265 9.03615 3.23267 9.0444 3.41409 9.0444C3.60376 9.0444 3.78106 9.02791 3.946 8.99492C4.11093 8.96194 4.27586 8.92483 4.44079 8.88359C4.60572 8.84236 4.77065 8.80525 4.93559 8.77226C5.10877 8.73928 5.29019 8.72278 5.47986 8.72278C5.55408 8.72278 5.6283 8.72691 5.70252 8.73515C5.77674 8.7434 5.84684 8.76402 5.91281 8.797C5.97878 8.82174 6.03238 8.8671 6.07362 8.93307C6.11485 8.9908 6.13547 9.06502 6.13547 9.15573C6.13547 9.31242 6.07774 9.44436 5.96229 9.55157C5.84684 9.65053 5.6984 9.73712 5.51697 9.81133C5.34379 9.88555 5.15 9.94328 4.93559 9.98451C4.72118 10.0175 4.51089 10.0464 4.30472 10.0711C4.1068 10.0876 3.92126 10.0958 3.74808 10.0958C3.58315 10.1041 3.45945 10.1082 3.37698 10.1082C2.8492 10.1082 2.37502 10.0257 1.95444 9.86081C1.53387 9.68764 1.17926 9.45261 0.890632 9.15573C0.602001 8.85061 0.379343 8.48776 0.222658 8.06718C0.0742193 7.63836 0 7.16418 0 6.64464ZM1.31121 5.8406C1.31121 6.12923 1.34832 6.33952 1.42254 6.47146C1.505 6.60341 1.6988 6.66938 2.00392 6.66938C2.21833 6.66938 2.42862 6.63227 2.63479 6.55805C2.84095 6.47559 3.0265 6.36426 3.19143 6.22407C3.36461 6.08387 3.50068 5.91894 3.59964 5.72927C3.6986 5.5396 3.74808 5.33343 3.74808 5.11078C3.74808 4.98708 3.73571 4.85925 3.71097 4.72731C3.69447 4.59536 3.65324 4.47579 3.58727 4.36858C3.5213 4.25313 3.43471 4.16242 3.3275 4.09645C3.22854 4.02223 3.0966 3.98512 2.93166 3.98512C2.68427 3.98512 2.45749 4.04284 2.25132 4.15829C2.0534 4.2655 1.88435 4.40982 1.74415 4.59124C1.60396 4.76442 1.49676 4.96234 1.42254 5.185C1.34832 5.39941 1.31121 5.61794 1.31121 5.8406Z" fill="#333333"/>
<path d="M7.0736 4.88812C7.0736 4.68195 7.10659 4.52114 7.17256 4.40569C7.24678 4.29024 7.39934 4.23251 7.63024 4.23251C7.65498 4.23251 7.70034 4.23664 7.76631 4.24488C7.84053 4.24488 7.88589 4.24488 7.90238 4.24488C7.96011 4.50053 8.01783 4.78091 8.07556 5.08604C8.14153 5.38291 8.21575 5.68391 8.29822 5.98904C8.38068 6.29416 8.4714 6.59516 8.57036 6.89204C8.67756 7.18892 8.80538 7.45693 8.95382 7.69608C9.10226 7.5394 9.20947 7.35385 9.27544 7.13944C9.34141 6.92503 9.39089 6.71062 9.42388 6.4962C9.45687 6.27355 9.48573 6.06326 9.51047 5.86534C9.54345 5.65917 9.6053 5.486 9.69602 5.3458C9.78673 5.19737 9.91867 5.09016 10.0919 5.02419C10.2733 4.95821 10.5207 4.95821 10.834 5.02419C11.1804 5.02419 11.4567 5.09016 11.6628 5.22211C11.869 5.3458 12.0463 5.50661 12.1947 5.70453C12.3514 5.8942 12.4999 6.10037 12.6401 6.32303C12.7885 6.53744 12.974 6.73123 13.1967 6.90441C13.2462 6.7972 13.308 6.66526 13.3822 6.50857C13.4565 6.34364 13.5472 6.17459 13.6544 6.00141C13.7698 5.81998 13.8894 5.64268 14.0131 5.4695C14.1451 5.28808 14.2811 5.12727 14.4213 4.98708C14.5615 4.83864 14.7058 4.71906 14.8543 4.62835C15.0027 4.52939 15.147 4.47991 15.2872 4.47991C15.6253 4.47991 15.9181 4.58712 16.1655 4.80153C16.4129 5.00769 16.6232 5.27158 16.7963 5.5932C16.9778 5.90657 17.1262 6.26118 17.2417 6.65701C17.3571 7.0446 17.4478 7.41982 17.5138 7.78267C17.5798 8.14552 17.6251 8.47951 17.6499 8.78463C17.6828 9.08151 17.6993 9.29592 17.6993 9.42787C17.6993 9.53507 17.6746 9.61754 17.6251 9.67527C17.5756 9.73299 17.5138 9.77835 17.4396 9.81133C17.3653 9.83607 17.2829 9.85257 17.1922 9.86081C17.1097 9.86906 17.0314 9.87318 16.9571 9.87318C16.9407 9.87318 16.9159 9.87318 16.8829 9.87318C16.8499 9.86494 16.8128 9.85669 16.7716 9.84844C16.7386 9.8402 16.6933 9.82783 16.6355 9.81133L15.8315 6.11274C15.8315 6.088 15.7985 6.04264 15.7325 5.97667C15.6666 5.90245 15.6171 5.85709 15.5841 5.8406C15.5593 5.8406 15.5387 5.83648 15.5222 5.82823C15.5057 5.82823 15.4934 5.82823 15.4851 5.82823C15.4769 5.81998 15.4686 5.81586 15.4604 5.81586C15.2872 5.81586 15.1223 5.88596 14.9656 6.02615C14.8172 6.16634 14.677 6.34364 14.545 6.55805C14.4131 6.77246 14.2894 7.01162 14.1739 7.27551C14.0585 7.5394 13.9554 7.80329 13.8647 8.06718C13.774 8.32282 13.6915 8.56198 13.6173 8.78463C13.5513 8.99904 13.4977 9.16398 13.4565 9.27943C13.4235 9.29592 13.3575 9.31242 13.2585 9.32891C13.1596 9.33716 13.0936 9.34128 13.0606 9.34128C12.8297 9.34128 12.6524 9.26294 12.5287 9.10625C12.405 8.94132 12.3019 8.73928 12.2195 8.50013C12.1453 8.26097 12.0793 8.00121 12.0216 7.72082C11.9721 7.43219 11.9061 7.1683 11.8236 6.92915C11.7494 6.69 11.6422 6.49208 11.502 6.3354C11.3701 6.17046 11.1804 6.088 10.933 6.088C10.8423 6.088 10.7557 6.17871 10.6732 6.36014C10.5908 6.54156 10.5166 6.77246 10.4506 7.05285C10.3846 7.32499 10.3228 7.62186 10.265 7.94348C10.2073 8.25685 10.1578 8.55373 10.1166 8.83411C10.0836 9.10625 10.0589 9.33716 10.0424 9.52683C10.0259 9.7165 10.0176 9.81133 10.0176 9.81133C10.0011 9.83607 9.96815 9.86494 9.91867 9.89792C9.86919 9.92266 9.81559 9.95153 9.75787 9.98451C9.70839 10.0175 9.65478 10.0422 9.59706 10.0587C9.54758 10.0752 9.51047 10.0835 9.48573 10.0835C9.25482 10.0835 9.03217 9.98039 8.81775 9.77422C8.60334 9.55981 8.40542 9.28768 8.224 8.95781C8.05082 8.6197 7.89001 8.24861 7.74157 7.84452C7.60138 7.44044 7.48181 7.0446 7.38285 6.65701C7.28389 6.26942 7.20554 5.91894 7.14782 5.60557C7.09834 5.2922 7.0736 5.05305 7.0736 4.88812Z" fill="#333333"/>
<path d="M18.3777 4.88812C18.3777 4.68195 18.4107 4.52114 18.4767 4.40569C18.5509 4.29024 18.7034 4.23251 18.9343 4.23251C18.9591 4.23251 19.0044 4.23664 19.0704 4.24488C19.1446 4.24488 19.19 4.24488 19.2065 4.24488C19.2642 4.50053 19.3219 4.78091 19.3797 5.08604C19.4456 5.38291 19.5199 5.68391 19.6023 5.98904C19.6848 6.29416 19.7755 6.59516 19.8745 6.89204C19.9817 7.18892 20.1095 7.45693 20.2579 7.69608C20.4064 7.5394 20.5136 7.35385 20.5795 7.13944C20.6455 6.92503 20.695 6.71062 20.728 6.4962C20.761 6.27355 20.7898 6.06326 20.8146 5.86534C20.8476 5.65917 20.9094 5.486 21.0001 5.3458C21.0908 5.19737 21.2228 5.09016 21.396 5.02419C21.5774 4.95821 21.8248 4.95821 22.1381 5.02419C22.4845 5.02419 22.7608 5.09016 22.9669 5.22211C23.1731 5.3458 23.3504 5.50661 23.4988 5.70453C23.6555 5.8942 23.804 6.10037 23.9442 6.32303C24.0926 6.53744 24.2781 6.73123 24.5008 6.90441C24.5503 6.7972 24.6121 6.66526 24.6863 6.50857C24.7606 6.34364 24.8513 6.17459 24.9585 6.00141C25.0739 5.81998 25.1935 5.64268 25.3172 5.4695C25.4492 5.28808 25.5852 5.12727 25.7254 4.98708C25.8656 4.83864 26.0099 4.71906 26.1584 4.62835C26.3068 4.52939 26.4511 4.47991 26.5913 4.47991C26.9294 4.47991 27.2222 4.58712 27.4696 4.80153C27.717 5.00769 27.9273 5.27158 28.1004 5.5932C28.2819 5.90657 28.4303 6.26118 28.5458 6.65701C28.6612 7.0446 28.7519 7.41982 28.8179 7.78267C28.8839 8.14552 28.9292 8.47951 28.954 8.78463C28.9869 9.08151 29.0034 9.29592 29.0034 9.42787C29.0034 9.53507 28.9787 9.61754 28.9292 9.67527C28.8797 9.73299 28.8179 9.77835 28.7437 9.81133C28.6695 9.83607 28.587 9.85257 28.4963 9.86081C28.4138 9.86906 28.3355 9.87318 28.2612 9.87318C28.2448 9.87318 28.22 9.87318 28.187 9.87318C28.154 9.86494 28.1169 9.85669 28.0757 9.84844C28.0427 9.8402 27.9974 9.82783 27.9396 9.81133L27.1356 6.11274C27.1356 6.088 27.1026 6.04264 27.0366 5.97667C26.9707 5.90245 26.9212 5.85709 26.8882 5.8406C26.8634 5.8406 26.8428 5.83648 26.8263 5.82823C26.8098 5.82823 26.7975 5.82823 26.7892 5.82823C26.781 5.81998 26.7727 5.81586 26.7645 5.81586C26.5913 5.81586 26.4264 5.88596 26.2697 6.02615C26.1213 6.16634 25.9811 6.34364 25.8491 6.55805C25.7172 6.77246 25.5935 7.01162 25.478 7.27551C25.3626 7.5394 25.2595 7.80329 25.1688 8.06718C25.0781 8.32282 24.9956 8.56198 24.9214 8.78463C24.8554 8.99904 24.8018 9.16398 24.7606 9.27943C24.7276 9.29592 24.6616 9.31242 24.5626 9.32891C24.4637 9.33716 24.3977 9.34128 24.3647 9.34128C24.1338 9.34128 23.9565 9.26294 23.8328 9.10625C23.7091 8.94132 23.606 8.73928 23.5236 8.50013C23.4494 8.26097 23.3834 8.00121 23.3257 7.72082C23.2762 7.43219 23.2102 7.1683 23.1277 6.92915C23.0535 6.69 22.9463 6.49208 22.8061 6.3354C22.6742 6.17046 22.4845 6.088 22.2371 6.088C22.1464 6.088 22.0598 6.17871 21.9773 6.36014C21.8949 6.54156 21.8207 6.77246 21.7547 7.05285C21.6887 7.32499 21.6269 7.62186 21.5691 7.94348C21.5114 8.25685 21.4619 8.55373 21.4207 8.83411C21.3877 9.10625 21.363 9.33716 21.3465 9.52683C21.33 9.7165 21.3217 9.81133 21.3217 9.81133C21.3052 9.83607 21.2723 9.86494 21.2228 9.89792C21.1733 9.92266 21.1197 9.95153 21.062 9.98451C21.0125 10.0175 20.9589 10.0422 20.9012 10.0587C20.8517 10.0752 20.8146 10.0835 20.7898 10.0835C20.5589 10.0835 20.3363 9.98039 20.1219 9.77422C19.9074 9.55981 19.7095 9.28768 19.5281 8.95781C19.3549 8.6197 19.1941 8.24861 19.0457 7.84452C18.9055 7.44044 18.7859 7.0446 18.6869 6.65701C18.588 6.26942 18.5096 5.91894 18.4519 5.60557C18.4024 5.2922 18.3777 5.05305 18.3777 4.88812Z" fill="#333333"/>
<path d="M35.273 8.48776C34.9596 8.70217 34.6875 8.89596 34.4566 9.06914C34.2339 9.23407 34.0154 9.37427 33.801 9.48972C33.5866 9.60517 33.3557 9.69176 33.1083 9.74949C32.8691 9.80721 32.5722 9.83607 32.2176 9.83607C31.4507 9.83607 30.8817 9.63403 30.5106 9.22995C30.1395 8.81762 29.9539 8.20737 29.9539 7.39921C29.9539 7.08584 29.9952 6.76009 30.0776 6.42198C30.1601 6.08387 30.2797 5.74989 30.4364 5.42002C30.6013 5.08191 30.7951 4.76442 31.0178 4.46754C31.2404 4.16242 31.4919 3.8944 31.7723 3.6635C32.0527 3.43259 32.3496 3.25117 32.6629 3.11922C32.9846 2.97903 33.3227 2.90894 33.6773 2.90894C34.271 2.96666 34.737 3.1151 35.0751 3.35425C35.4132 3.58516 35.6688 3.88616 35.842 4.25725C36.0152 4.6201 36.1348 5.02831 36.2007 5.48187C36.2667 5.92719 36.3162 6.389 36.3492 6.8673C36.3904 7.3456 36.4399 7.82391 36.4976 8.30221C36.5553 8.78051 36.6749 9.2217 36.8563 9.62579C36.7491 9.89792 36.6461 10.0876 36.5471 10.1948C36.4564 10.3103 36.3533 10.3309 36.2378 10.2567C36.1224 10.1824 35.9863 10.001 35.8296 9.71238C35.6812 9.42374 35.4957 9.01554 35.273 8.48776ZM31.0054 7.42395C31.0054 7.894 31.092 8.24036 31.2651 8.46302C31.4466 8.67743 31.7641 8.78463 32.2176 8.78463C32.5557 8.78463 32.8774 8.72691 33.1825 8.61145C33.4959 8.48776 33.768 8.32282 33.9989 8.11666C34.2298 7.90225 34.4153 7.6466 34.5555 7.34973C34.6957 7.05285 34.7658 6.72299 34.7658 6.36014C34.7658 6.2117 34.77 6.00553 34.7782 5.74164C34.7864 5.4695 34.77 5.20149 34.7287 4.9376C34.6875 4.67371 34.6091 4.44693 34.4937 4.25725C34.3782 4.05934 34.2051 3.96038 33.9742 3.96038C33.5453 3.96038 33.1495 4.07171 32.7866 4.29436C32.4238 4.50877 32.1104 4.78504 31.8465 5.12315C31.5826 5.46126 31.3765 5.83648 31.228 6.24881C31.0796 6.65289 31.0054 7.0446 31.0054 7.42395Z" fill="#333333"/>
<path d="M39.2244 4.21524C39.2331 4.21515 39.242 4.21487 39.251 4.21454C39.244 4.2183 39.2367 4.22174 39.2296 4.22548C39.2279 4.22207 39.2261 4.21866 39.2244 4.21524ZM38.5991 2.90468C38.6586 2.89599 38.7168 2.87862 38.7615 2.84435C38.8173 2.80155 38.8734 2.75921 38.9295 2.71687C38.8513 2.84668 38.7676 2.97339 38.6784 3.09701C38.6662 3.06872 38.6536 3.0405 38.6418 3.01208C38.627 2.97665 38.6129 2.94077 38.5991 2.90468ZM38.8473 1.09523C38.8448 1.09697 38.9407 1.04518 38.9366 1.03015C38.9502 1.03358 38.9645 1.03971 38.9788 1.04774C38.81 1.25849 38.6413 1.46925 38.4725 1.68001C38.4745 1.6721 38.4761 1.66411 38.4782 1.65623C38.538 1.44074 38.6588 1.22401 38.8473 1.09523ZM40.4261 2.1114C40.2212 2.4101 40.0135 2.70681 39.7992 2.99861C39.7609 2.9993 39.7193 3.00214 39.6787 3.00661C39.7159 2.94365 39.7521 2.88008 39.7872 2.81585C39.8267 2.80517 39.8561 2.79208 39.8663 2.77736C40.0331 2.53688 40.2205 2.31442 40.4261 2.1114ZM39.1561 3.7575C39.1277 3.80842 39.0984 3.85893 39.0678 3.90888C39.0461 3.86636 39.0246 3.82379 39.003 3.78125C39.0607 3.77752 39.116 3.76957 39.1561 3.7575ZM38.8296 3.20542C38.9019 3.20642 39.034 3.20599 39.106 3.15805C39.0305 3.27946 38.952 3.39907 38.8722 3.51804C38.8202 3.4113 38.7695 3.30403 38.7212 3.1959C38.7671 3.20398 38.8184 3.20528 38.8296 3.20542ZM38.4851 2.265C38.6313 2.12901 38.7827 1.99975 38.9386 1.8765C38.8828 1.96672 38.8226 2.05478 38.762 2.14308C38.6701 2.27717 38.578 2.4112 38.486 2.54519C38.4659 2.46234 38.4501 2.37874 38.4396 2.29459C38.4564 2.28639 38.4722 2.27706 38.4851 2.265V2.265ZM39.4068 1.91827C39.4136 1.97507 39.4185 2.03238 39.4214 2.08988C39.3654 2.09596 39.3145 2.10504 39.2829 2.11461C39.3261 2.04998 39.3675 1.98455 39.4068 1.91827ZM39.2441 1.3414C39.2351 1.34337 39.2271 1.34527 39.2201 1.34717C39.2257 1.3403 39.2311 1.33344 39.2366 1.32654C39.2392 1.33145 39.2416 1.33646 39.2441 1.3414V1.3414ZM41.3935 2.28545C41.482 2.04521 41.7134 1.50203 41.453 1.30609C41.3518 1.22993 41.1043 1.26435 40.9996 1.32217C40.6019 1.54192 40.2399 1.81454 39.9222 2.13331C39.9179 1.75192 39.8413 1.35965 39.6051 1.10187C39.2852 0.752578 38.6309 0.856945 38.3048 1.14253C37.8807 1.51388 37.8721 2.16971 38.0133 2.6709C38.1844 3.27818 38.5264 3.84769 38.8099 4.40985C38.8006 4.41325 38.7914 4.41696 38.782 4.42022C38.6905 4.45204 38.712 4.48974 38.7886 4.51472C38.8662 4.53994 38.9762 4.53113 39.067 4.51007C39.2018 4.49516 39.3417 4.44802 39.3306 4.42574C39.3294 4.42322 39.328 4.42062 39.3268 4.4181C39.9457 4.16478 40.4898 3.74893 40.8916 3.21123C41.1026 2.92884 41.2717 2.61627 41.3935 2.28545Z" fill="#EF706F"/>
</svg>
