<svg width="10" height="10" viewBox="0 0 10 10" fill="none" xmlns="http://www.w3.org/2000/svg">
<path d="M9.44444 6.11111H7.93222L4.44444 9.59889C4.29226 9.74971 4.12468 9.88415 3.94444 10H9.44444C9.59179 10 9.7331 9.94147 9.83728 9.83728C9.94147 9.7331 10 9.59179 10 9.44444V6.66667C10 6.51932 9.94147 6.37802 9.83728 6.27383C9.7331 6.16964 9.59179 6.11111 9.44444 6.11111Z" fill="white"/>
<path d="M3.33333 0H0.555556C0.408213 0 0.266905 0.0585316 0.162718 0.162718C0.0585316 0.266905 0 0.408213 0 0.555556V8.05556C1.08675e-08 8.57125 0.204861 9.06583 0.569515 9.43049C0.934169 9.79514 1.42875 10 1.94444 10C2.46014 10 2.95472 9.79514 3.31937 9.43049C3.68403 9.06583 3.88889 8.57125 3.88889 8.05556V0.555556C3.88889 0.408213 3.83036 0.266905 3.72617 0.162718C3.62198 0.0585316 3.48068 0 3.33333 0ZM1.94444 8.61111C1.83457 8.61111 1.72716 8.57853 1.63579 8.51748C1.54443 8.45644 1.47323 8.36967 1.43118 8.26816C1.38913 8.16664 1.37813 8.05494 1.39956 7.94717C1.421 7.8394 1.47391 7.74041 1.55161 7.66272C1.6293 7.58502 1.72829 7.53211 1.83606 7.51068C1.94383 7.48924 2.05553 7.50024 2.15705 7.54229C2.25856 7.58434 2.34533 7.65555 2.40637 7.74691C2.46742 7.83827 2.5 7.94568 2.5 8.05556C2.5 8.2029 2.44147 8.34421 2.33728 8.44839C2.23309 8.55258 2.09179 8.61111 1.94444 8.61111Z" fill="white"/>
<path d="M8.96222 2.72222L7 0.76C6.89582 0.655849 6.75454 0.597341 6.60722 0.597341C6.45991 0.597341 6.31863 0.655849 6.21444 0.76L5 1.97222V7.47222L8.96222 3.51C9.01413 3.45837 9.05532 3.397 9.08342 3.3294C9.11153 3.2618 9.126 3.18932 9.126 3.11611C9.126 3.0429 9.11153 2.97042 9.08342 2.90282C9.05532 2.83522 9.01413 2.77385 8.96222 2.72222Z" fill="white"/>
</svg>
